custom-font.ufo
<glyph name="exclam" format="2">
  <advance width="342"/>
  <unicode hex="0021"/>
  <outline>
    <contour>
      <point x="80" y="144" type="curve"/>
      <point x="80" y="144"/>
      <point x="113" y="56"/>
      <point x="92" y="-1" type="curve"/>
      <point x="179" y="47" type="line"/>
      <point x="179" y="47"/>
      <point x="210" y="61"/>
      <point x="217" y="98" type="curve"/>
      <point x="217" y="98"/>
      <point x="229" y="165"/>
      <point x="207" y="206" type="curve"/>
      <point x="207" y="206"/>
      <point x="153" y="146"/>
    </contour>
    <contour>
      <point x="134" y="690" type="curve" smooth="yes"/>
      <point x="317" y="749" type="line"/>
      <point x="317" y="749"/>
      <point x="181" y="514"/>
      <point x="190" y="271" type="curve"/>
      <point x="190" y="271"/>
      <point x="121" y="265"/>
      <point x="83" y="211" type="curve"/>
      <point x="83" y="211"/>
      <point x="79" y="327"/>
      <point x="87" y="462" type="curve"/>
      <point x="87" y="462"/>
      <point x="104" y="679"/>
    </contour>
  </outline>
</glyph>
<glyph name="quotedbl" format="2">
  <advance width="600"/>
  <unicode hex="0022"/>
  <outline>
    <contour>
      <point x="165" y="669" type="curve"/>
      <point x="165" y="669"/>
      <point x="253" y="715"/>
      <point x="298" y="751" type="curve"/>
      <point x="298" y="751"/>
      <point x="289" y="559"/>
      <point x="282" y="510" type="curve"/>
      <point x="282" y="510"/>
      <point x="281" y="462"/>
      <point x="249" y="426" type="curve" smooth="yes"/>
      <point x="217" y="390"/>
      <point x="152" y="365"/>
      <point x="152" y="365" type="curve"/>
      <point x="152" y="365"/>
      <point x="176" y="553"/>
    </contour>
    <contour>
      <point x="325" y="668" type="curve"/>
      <point x="325" y="668"/>
      <point x="413" y="714"/>
      <point x="458" y="750" type="curve"/>
      <point x="458" y="750"/>
      <point x="449" y="558"/>
      <point x="442" y="509" type="curve"/>
      <point x="442" y="509"/>
      <point x="441" y="461"/>
      <point x="409" y="425" type="curve" smooth="yes"/>
      <point x="377" y="389"/>
      <point x="312" y="364"/>
      <point x="312" y="364" type="curve"/>
      <point x="312" y="364"/>
      <point x="336" y="552"/>
    </contour>
  </outline>
</glyph>
<glyph name="numbersign" format="2">
  <advance width="734"/>
  <unicode hex="0023"/>
  <outline>
    <contour>
      <point x="253" y="635" type="line"/>
      <point x="253" y="635"/>
      <point x="361" y="294"/>
      <point x="88" y="-11" type="curve"/>
      <point x="283" y="47" type="line"/>
      <point x="283" y="47"/>
      <point x="492" y="254"/>
      <point x="334" y="748" type="curve"/>
      <point x="334" y="748"/>
      <point x="315" y="688"/>
      <point x="253" y="637" type="curve"/>
    </contour>
    <contour>
      <point x="478" y="662" type="curve"/>
      <point x="475" y="643"/>
      <point x="486" y="172"/>
      <point x="358" y="7" type="curve"/>
      <point x="564" y="8" type="line"/>
      <point x="611" y="226"/>
      <point x="590" y="449"/>
      <point x="590" y="449" type="curve"/>
      <point x="570" y="689"/>
      <point x="606" y="772"/>
      <point x="606" y="772" type="curve"/>
      <point x="561" y="691"/>
      <point x="478" y="662"/>
    </contour>
    <contour>
      <point x="107" y="312" type="curve"/>
      <point x="107" y="312"/>
      <point x="79" y="230"/>
      <point x="35" y="196" type="curve"/>
      <point x="35" y="196"/>
      <point x="264" y="222"/>
      <point x="428" y="169" type="curve"/>
      <point x="428" y="169"/>
      <point x="455" y="202"/>
      <point x="453" y="295" type="curve"/>
      <point x="453" y="295"/>
      <point x="275" y="311"/>
    </contour>
    <contour>
      <point x="124" y="415" type="curve"/>
      <point x="235" y="430"/>
      <point x="293" y="413"/>
      <point x="293" y="413" type="curve"/>
      <point x="330" y="526" type="line"/>
      <point x="306" y="529"/>
      <point x="195" y="531"/>
      <point x="195" y="531" type="curve"/>
      <point x="182" y="467"/>
      <point x="124" y="415"/>
    </contour>
    <contour>
      <point x="432" y="519" type="curve"/>
      <point x="393" y="411" type="line"/>
      <point x="393" y="411"/>
      <point x="554" y="371"/>
      <point x="668" y="385" type="curve"/>
      <point x="698" y="517" type="line"/>
      <point x="698" y="517"/>
      <point x="528" y="495"/>
    </contour>
    <contour>
      <point x="595" y="291" type="curve"/>
      <point x="595" y="291"/>
      <point x="690" y="295"/>
    </contour>
    <contour>
      <point x="585" y="291" type="curve"/>
      <point x="585" y="291"/>
      <point x="605" y="233"/>
      <point x="618" y="202" type="curve" smooth="yes"/>
      <point x="631" y="171"/>
      <point x="661" y="169"/>
      <point x="661" y="169" type="curve"/>
      <point x="701" y="173" type="line"/>
      <point x="744" y="306" type="line"/>
      <point x="697" y="291"/>
      <point x="585" y="291"/>
    </contour>
  </outline>
</glyph>
<glyph name="ampersand" format="2">
  <advance width="800"/>
  <unicode hex="0026"/>
  <outline>
    <contour>
      <point x="302" y="455" type="curve"/>
      <point x="302" y="455"/>
      <point x="296" y="382"/>
      <point x="319" y="336" type="curve"/>
      <point x="319" y="336"/>
      <point x="575" y="314"/>
      <point x="558" y="594" type="curve"/>
      <point x="558" y="594"/>
      <point x="542" y="781"/>
      <point x="314" y="780" type="curve"/>
      <point x="314" y="780"/>
      <point x="62" y="775"/>
      <point x="92" y="490" type="curve"/>
      <point x="92" y="490"/>
      <point x="97" y="231"/>
      <point x="642" y="4" type="curve"/>
      <point x="642" y="4"/>
      <point x="672" y="78"/>
      <point x="728" y="150" type="curve"/>
      <point x="728" y="150"/>
      <point x="411" y="185"/>
      <point x="243" y="427" type="curve"/>
      <point x="243" y="427"/>
      <point x="164" y="551"/>
      <point x="256" y="640" type="curve"/>
      <point x="256" y="640"/>
      <point x="373" y="730"/>
      <point x="432" y="600" type="curve"/>
      <point x="432" y="600"/>
      <point x="504" y="421"/>
      <point x="302" y="455" type="curve"/>
      <point x="302" y="455"/>
      <point x="317" y="452"/>
    </contour>
    <contour>
      <point x="494" y="209" type="curve"/>
      <point x="494" y="209"/>
      <point x="565" y="75"/>
      <point x="627" y="156" type="curve" smooth="yes"/>
      <point x="688" y="236"/>
      <point x="739" y="402"/>
      <point x="739" y="402" type="curve"/>
      <point x="642" y="369"/>
      <point x="594" y="425"/>
      <point x="594" y="425" type="curve"/>
      <point x="565" y="286"/>
      <point x="494" y="209"/>
    </contour>
    <contour>
      <point x="402" y="116" type="curve"/>
      <point x="198" y="86"/>
      <point x="170" y="177"/>
      <point x="170" y="177" type="curve"/>
      <point x="160" y="266"/>
      <point x="312" y="276"/>
      <point x="312" y="276" type="curve"/>
      <point x="164" y="335" type="line"/>
      <point x="102" y="312"/>
      <point x="59" y="262"/>
      <point x="59" y="262" type="curve"/>
      <point x="-21" y="167"/>
      <point x="68" y="77"/>
      <point x="68" y="77" type="curve"/>
      <point x="241" y="-81"/>
      <point x="472" y="-8"/>
      <point x="472" y="-8" type="curve"/>
      <point x="448" y="53"/>
      <point x="402" y="116"/>
    </contour>
  </outline>
</glyph>
<glyph name="quotesingle" format="2">
  <advance width="600"/>
  <unicode hex="0027"/>
  <outline>
    <contour>
      <point x="242" y="669" type="curve"/>
      <point x="242" y="669"/>
      <point x="330" y="715"/>
      <point x="375" y="751" type="curve"/>
      <point x="375" y="751"/>
      <point x="366" y="559"/>
      <point x="359" y="510" type="curve"/>
      <point x="359" y="510"/>
      <point x="358" y="462"/>
      <point x="326" y="426" type="curve" smooth="yes"/>
      <point x="294" y="390"/>
      <point x="229" y="365"/>
      <point x="229" y="365" type="curve"/>
      <point x="229" y="365"/>
      <point x="253" y="553"/>
    </contour>
  </outline>
</glyph>
<glyph name="parenleft" format="2">
  <advance width="405"/>
  <unicode hex="0028"/>
  <outline>
    <contour>
      <point x="300" y="743" type="curve"/>
      <point x="300" y="743"/>
      <point x="321" y="645"/>
      <point x="362" y="610" type="curve"/>
      <point x="362" y="610"/>
      <point x="163" y="588"/>
      <point x="155" y="374" type="curve"/>
      <point x="155" y="374"/>
      <point x="157" y="164"/>
      <point x="365" y="135" type="curve"/>
      <point x="365" y="135"/>
      <point x="306" y="69"/>
      <point x="312" y="-1" type="curve"/>
      <point x="312" y="-1"/>
      <point x="1" y="60"/>
      <point x="27" y="376" type="curve"/>
      <point x="27" y="376"/>
      <point x="42" y="666"/>
    </contour>
  </outline>
</glyph>
<glyph name="parenright" format="2">
  <advance width="395"/>
  <unicode hex="0029"/>
  <outline>
    <contour>
      <point x="95" y="-2" type="curve"/>
      <point x="95" y="-2"/>
      <point x="74" y="96"/>
      <point x="33" y="131" type="curve"/>
      <point x="33" y="131"/>
      <point x="232" y="153"/>
      <point x="240" y="367" type="curve"/>
      <point x="240" y="367"/>
      <point x="238" y="577"/>
      <point x="30" y="606" type="curve"/>
      <point x="30" y="606"/>
      <point x="89" y="672"/>
      <point x="83" y="742" type="curve"/>
      <point x="83" y="742"/>
      <point x="394" y="681"/>
      <point x="368" y="365" type="curve"/>
      <point x="368" y="365"/>
      <point x="353" y="75"/>
    </contour>
  </outline>
</glyph>
<glyph name="comma" format="2">
  <advance width="221"/>
  <unicode hex="002C"/>
  <outline>
    <contour>
      <point x="51" y="149" type="curve"/>
      <point x="51" y="149"/>
      <point x="53" y="33"/>
      <point x="20" y="2" type="curve"/>
      <point x="146" y="29" type="line"/>
      <point x="146" y="29"/>
      <point x="123" y="-7"/>
      <point x="45" y="-57" type="curve"/>
      <point x="45" y="-57"/>
      <point x="58" y="-135"/>
      <point x="57" y="-194" type="curve"/>
      <point x="57" y="-194"/>
      <point x="226" y="-118"/>
      <point x="198" y="169" type="curve"/>
      <point x="198" y="169"/>
      <point x="131" y="132"/>
    </contour>
  </outline>
</glyph>
<glyph name="hyphen" format="2">
  <advance width="414"/>
  <unicode hex="002D"/>
  <outline>
    <contour>
      <point x="20" y="188" type="curve"/>
      <point x="20" y="188"/>
      <point x="84" y="218"/>
      <point x="115" y="305" type="curve"/>
      <point x="115" y="305"/>
      <point x="160" y="303"/>
      <point x="236" y="295" type="curve"/>
      <point x="236" y="295"/>
      <point x="337" y="287"/>
      <point x="394" y="295" type="curve"/>
      <point x="347" y="167" type="line"/>
      <point x="347" y="167"/>
      <point x="278" y="164"/>
      <point x="211" y="184" type="curve"/>
      <point x="211" y="184"/>
      <point x="146" y="207"/>
      <point x="78" y="200" type="curve"/>
      <point x="78" y="200"/>
      <point x="35" y="194"/>
    </contour>
  </outline>
</glyph>
<glyph name="period" format="2">
  <advance width="189"/>
  <unicode hex="002E"/>
  <outline>
    <contour>
      <point x="20" y="144" type="curve"/>
      <point x="20" y="144"/>
      <point x="53" y="56"/>
      <point x="32" y="-1" type="curve"/>
      <point x="128" y="47" type="line"/>
      <point x="128" y="47"/>
      <point x="159" y="61"/>
      <point x="166" y="98" type="curve"/>
      <point x="166" y="98"/>
      <point x="178" y="165"/>
      <point x="156" y="206" type="curve"/>
      <point x="156" y="206"/>
      <point x="93" y="146"/>
    </contour>
  </outline>
</glyph>
<glyph name="slash" format="2">
  <advance width="541"/>
  <unicode hex="002F"/>
  <outline>
    <contour>
      <point x="25" y="2" type="curve"/>
      <point x="177" y="46" type="line"/>
      <point x="177" y="46"/>
      <point x="306" y="417"/>
      <point x="516" y="625" type="curve"/>
      <point x="479" y="750" type="line"/>
      <point x="479" y="750"/>
      <point x="130" y="343"/>
    </contour>
  </outline>
</glyph>
<glyph name="colon" format="2">
  <advance width="229"/>
  <unicode hex="003A"/>
  <outline>
    <contour>
      <point x="40" y="144" type="curve"/>
      <point x="40" y="144"/>
      <point x="73" y="56"/>
      <point x="52" y="-1" type="curve"/>
      <point x="148" y="47" type="line"/>
      <point x="148" y="47"/>
      <point x="179" y="61"/>
      <point x="186" y="98" type="curve"/>
      <point x="186" y="98"/>
      <point x="198" y="165"/>
      <point x="176" y="206" type="curve"/>
      <point x="176" y="206"/>
      <point x="113" y="146"/>
    </contour>
    <contour>
      <point x="40" y="438" type="curve"/>
      <point x="40" y="438"/>
      <point x="73" y="350"/>
      <point x="52" y="293" type="curve"/>
      <point x="148" y="341" type="line"/>
      <point x="148" y="341"/>
      <point x="179" y="355"/>
      <point x="186" y="392" type="curve"/>
      <point x="186" y="392"/>
      <point x="198" y="459"/>
      <point x="176" y="500" type="curve"/>
      <point x="176" y="500"/>
      <point x="113" y="440"/>
    </contour>
  </outline>
</glyph>
<glyph name="semicolon" format="2">
  <advance width="241"/>
  <unicode hex="003B"/>
  <outline>
    <contour>
      <point x="50" y="438" type="curve"/>
      <point x="50" y="438"/>
      <point x="83" y="350"/>
      <point x="62" y="293" type="curve"/>
      <point x="158" y="341" type="line"/>
      <point x="158" y="341"/>
      <point x="189" y="355"/>
      <point x="196" y="392" type="curve"/>
      <point x="196" y="392"/>
      <point x="208" y="459"/>
      <point x="186" y="500" type="curve"/>
      <point x="186" y="500"/>
      <point x="123" y="440"/>
    </contour>
    <contour>
      <point x="61" y="149" type="curve"/>
      <point x="61" y="149"/>
      <point x="63" y="33"/>
      <point x="30" y="2" type="curve"/>
      <point x="156" y="29" type="line"/>
      <point x="156" y="29"/>
      <point x="133" y="-7"/>
      <point x="55" y="-57" type="curve"/>
      <point x="55" y="-57"/>
      <point x="68" y="-135"/>
      <point x="67" y="-194" type="curve"/>
      <point x="67" y="-194"/>
      <point x="236" y="-118"/>
      <point x="208" y="169" type="curve"/>
      <point x="208" y="169"/>
      <point x="141" y="132"/>
    </contour>
  </outline>
</glyph>
<glyph name="question" format="2">
  <advance width="600"/>
  <unicode hex="003F"/>
  <outline>
    <contour>
      <point x="206" y="144" type="curve"/>
      <point x="206" y="144"/>
      <point x="239" y="56"/>
      <point x="218" y="-1" type="curve"/>
      <point x="305" y="47" type="line"/>
      <point x="305" y="47"/>
      <point x="336" y="61"/>
      <point x="343" y="98" type="curve"/>
      <point x="343" y="98"/>
      <point x="355" y="165"/>
      <point x="333" y="206" type="curve"/>
      <point x="333" y="206"/>
      <point x="279" y="146"/>
    </contour>
    <contour>
      <point x="34" y="578" type="curve"/>
      <point x="34" y="578"/>
      <point x="104" y="549"/>
      <point x="171" y="470" type="curve"/>
      <point x="174" y="468" type="line"/>
      <point x="174" y="468"/>
      <point x="201" y="648"/>
      <point x="340" y="651" type="curve"/>
      <point x="340" y="651"/>
      <point x="423" y="648"/>
      <point x="467" y="578" type="curve"/>
      <point x="557" y="667" type="line"/>
      <point x="557" y="667"/>
      <point x="456" y="775"/>
      <point x="322" y="759" type="curve"/>
      <point x="322" y="759"/>
      <point x="127" y="763"/>
    </contour>
    <contour>
      <point x="167" y="232" type="curve"/>
      <point x="167" y="232"/>
      <point x="301" y="223"/>
      <point x="320" y="223" type="curve"/>
      <point x="320" y="223"/>
      <point x="248" y="428"/>
      <point x="538" y="491" type="curve"/>
      <point x="579" y="596" type="line"/>
      <point x="579" y="596"/>
      <point x="162" y="580"/>
    </contour>
  </outline>
</glyph>
<glyph name="at" format="2">
  <advance width="700"/>
  <unicode hex="0040"/>
  <outline>
    <contour>
      <point x="434" y="101" type="curve"/>
      <point x="434" y="101"/>
      <point x="450" y="28"/>
      <point x="494" y="2" type="curve"/>
      <point x="494" y="2"/>
      <point x="126" y="-98"/>
      <point x="57" y="221" type="curve"/>
      <point x="57" y="221"/>
      <point x="18" y="490"/>
      <point x="320" y="529" type="curve"/>
      <point x="320" y="529"/>
      <point x="568" y="547"/>
      <point x="635" y="316" type="curve"/>
      <point x="635" y="316"/>
      <point x="665" y="203"/>
      <point x="601" y="124" type="curve"/>
      <point x="601" y="124"/>
      <point x="534" y="141"/>
      <point x="467" y="119" type="curve"/>
      <point x="467" y="119"/>
      <point x="602" y="257"/>
      <point x="478" y="379" type="curve"/>
      <point x="478" y="379"/>
      <point x="341" y="513"/>
      <point x="209" y="382" type="curve"/>
      <point x="209" y="382"/>
      <point x="86" y="271"/>
      <point x="209" y="130" type="curve"/>
      <point x="209" y="130"/>
      <point x="303" y="37"/>
    </contour>
    <contour>
      <point x="405" y="377" type="line"/>
      <point x="405" y="377"/>
      <point x="368" y="271"/>
      <point x="389" y="192" type="curve"/>
      <point x="389" y="192"/>
      <point x="405" y="133"/>
      <point x="467" y="119" type="curve"/>
      <point x="467" y="119"/>
      <point x="488" y="157"/>
      <point x="490" y="195" type="curve"/>
      <point x="490" y="195"/>
      <point x="428" y="181"/>
      <point x="488" y="330" type="curve"/>
    </contour>
    <contour>
      <point x="384" y="303" type="curve"/>
      <point x="384" y="303"/>
      <point x="371" y="321"/>
      <point x="369" y="351" type="curve"/>
      <point x="369" y="351"/>
      <point x="218" y="354"/>
      <point x="212" y="223" type="curve"/>
      <point x="212" y="223"/>
      <point x="202" y="121"/>
      <point x="315" y="111" type="curve"/>
      <point x="315" y="111"/>
      <point x="378" y="100"/>
      <point x="417" y="164" type="curve" smooth="yes"/>
      <point x="455" y="227"/>
      <point x="399" y="205"/>
      <point x="399" y="205" type="curve"/>
      <point x="399" y="205"/>
      <point x="340" y="129"/>
      <point x="299" y="195" type="curve"/>
      <point x="299" y="195"/>
      <point x="259" y="291"/>
    </contour>
  </outline>
</glyph>
<glyph name="A" format="2">
  <advance width="832"/>
  <unicode hex="0041"/>
  <outline>
    <contour>
      <point x="-25" y="-4" type="line"/>
      <point x="-25" y="-4"/>
      <point x="255" y="223"/>
      <point x="287" y="663" type="curve"/>
      <point x="287" y="663"/>
      <point x="401" y="727"/>
      <point x="419" y="747" type="curve"/>
      <point x="419" y="747"/>
      <point x="433" y="645"/>
      <point x="475" y="595" type="curve"/>
      <point x="374" y="568" type="line"/>
      <point x="374" y="568"/>
      <point x="378" y="316"/>
      <point x="199" y="54" type="curve"/>
    </contour>
    <contour>
      <point x="478" y="762" type="line"/>
      <point x="478" y="762"/>
      <point x="747" y="473"/>
      <point x="827" y="6" type="curve"/>
      <point x="650" y="4" type="line"/>
      <point x="650" y="4"/>
      <point x="628" y="320"/>
      <point x="475" y="595" type="curve"/>
    </contour>
    <contour>
      <point x="423" y="424" type="curve"/>
      <point x="473" y="385"/>
      <point x="580" y="381"/>
      <point x="580" y="381" type="curve"/>
      <point x="508" y="285" type="line"/>
      <point x="491" y="265"/>
      <point x="459" y="263"/>
      <point x="459" y="263" type="curve"/>
      <point x="358" y="257"/>
      <point x="314" y="303"/>
      <point x="314" y="303" type="curve"/>
      <point x="351" y="328"/>
      <point x="423" y="424"/>
    </contour>
  </outline>
</glyph>
<glyph name="B" format="2">
  <advance width="706"/>
  <unicode hex="0042"/>
  <outline>
    <contour>
      <point x="100" y="672" type="curve"/>
      <point x="100" y="672"/>
      <point x="177" y="682"/>
      <point x="261" y="768" type="curve"/>
      <point x="261" y="768"/>
      <point x="202" y="706"/>
      <point x="215" y="428" type="curve"/>
      <point x="215" y="428"/>
      <point x="216" y="196"/>
      <point x="304" y="1" type="curve"/>
      <point x="109" y="0" type="line"/>
      <point x="109" y="0"/>
      <point x="50" y="395"/>
    </contour>
    <contour>
      <point x="262" y="596" type="curve"/>
      <point x="227" y="685" type="line"/>
      <point x="227" y="685"/>
      <point x="348" y="831"/>
      <point x="578" y="712" type="curve"/>
      <point x="578" y="712"/>
      <point x="550" y="681"/>
      <point x="527" y="593" type="curve"/>
      <point x="527" y="593"/>
      <point x="399" y="707"/>
    </contour>
    <contour>
      <point x="696" y="575" type="line"/>
      <point x="616" y="554"/>
      <point x="613" y="506"/>
      <point x="613" y="506" type="curve"/>
      <point x="536" y="115"/>
      <point x="218" y="341"/>
      <point x="218" y="341" type="curve"/>
      <point x="247" y="438" type="line"/>
      <point x="312" y="370"/>
      <point x="385" y="385"/>
      <point x="385" y="385" type="curve"/>
      <point x="483" y="398"/>
      <point x="503" y="500"/>
      <point x="503" y="500" type="curve"/>
      <point x="517" y="649"/>
      <point x="639" y="691"/>
      <point x="639" y="691" type="curve"/>
    </contour>
    <contour>
      <point x="473" y="240" type="curve"/>
      <point x="539" y="333" type="line"/>
      <point x="539" y="333"/>
      <point x="701" y="251"/>
      <point x="683" y="117" type="curve" smooth="yes"/>
      <point x="665" y="-17"/>
      <point x="441" y="0"/>
      <point x="391" y="-3" type="curve" smooth="yes"/>
      <point x="341" y="-6"/>
      <point x="109" y="-1"/>
      <point x="109" y="-1" type="curve"/>
      <point x="190" y="123" type="line"/>
      <point x="190" y="123"/>
      <point x="434" y="68"/>
      <point x="499" y="124" type="curve" smooth="yes"/>
      <point x="577" y="192"/>
      <point x="479" y="233"/>
    </contour>
  </outline>
</glyph>
<glyph name="C" format="2">
  <advance width="773"/>
  <unicode hex="0043"/>
  <outline>
    <contour>
      <point x="685" y="494" type="curve"/>
      <point x="685" y="494"/>
      <point x="712" y="595"/>
      <point x="756" y="636" type="curve"/>
      <point x="756" y="636"/>
      <point x="592" y="766"/>
      <point x="447" y="759" type="curve"/>
      <point x="447" y="759"/>
      <point x="140" y="774"/>
      <point x="75" y="428" type="curve"/>
      <point x="75" y="428"/>
      <point x="17" y="17"/>
      <point x="402" y="-7" type="curve"/>
      <point x="402" y="-7"/>
      <point x="609" y="-28"/>
      <point x="699" y="138" type="curve"/>
      <point x="699" y="138"/>
      <point x="723" y="191"/>
      <point x="760" y="206" type="curve" smooth="yes"/>
      <point x="803" y="225" type="line"/>
      <point x="735" y="354" type="line"/>
      <point x="735" y="354"/>
      <point x="646" y="314"/>
      <point x="615" y="242" type="curve"/>
      <point x="615" y="242"/>
      <point x="575" y="133"/>
      <point x="422" y="136" type="curve"/>
      <point x="422" y="136"/>
      <point x="192" y="147"/>
      <point x="197" y="393" type="curve"/>
      <point x="197" y="393"/>
      <point x="196" y="594"/>
      <point x="431" y="612" type="curve"/>
      <point x="431" y="612"/>
      <point x="580" y="626"/>
    </contour>
  </outline>
</glyph>
<glyph name="D" format="2">
  <advance width="833"/>
  <unicode hex="0044"/>
  <outline>
    <contour>
      <point x="30" y="14" type="curve"/>
      <point x="30" y="14"/>
      <point x="114" y="105"/>
      <point x="133" y="152" type="curve"/>
      <point x="133" y="152"/>
      <point x="423" y="110"/>
      <point x="511" y="143" type="curve"/>
      <point x="511" y="143"/>
      <point x="636" y="167"/>
      <point x="683" y="314" type="curve"/>
      <point x="683" y="314"/>
      <point x="733" y="524"/>
      <point x="536" y="606" type="curve"/>
      <point x="536" y="606"/>
      <point x="428" y="656"/>
      <point x="336" y="610" type="curve"/>
      <point x="336" y="610"/>
      <point x="402" y="316"/>
      <point x="301" y="134" type="curve"/>
      <point x="301" y="134"/>
      <point x="264" y="188"/>
      <point x="177" y="230" type="curve"/>
      <point x="177" y="230"/>
      <point x="276" y="425"/>
      <point x="220" y="657" type="curve"/>
      <point x="220" y="657"/>
      <point x="281" y="698"/>
      <point x="290" y="746" type="curve"/>
      <point x="290" y="746"/>
      <point x="492" y="793"/>
      <point x="583" y="754" type="curve"/>
      <point x="583" y="754"/>
      <point x="817" y="682"/>
      <point x="819" y="385" type="curve"/>
      <point x="819" y="385"/>
      <point x="850" y="19"/>
      <point x="386" y="3" type="curve"/>
      <point x="386" y="3"/>
      <point x="216" y="-3"/>
    </contour>
  </outline>
</glyph>
<glyph name="E" format="2">
  <advance width="703"/>
  <unicode hex="0045"/>
  <outline>
    <contour>
      <point x="592" y="750" type="curve"/>
      <point x="592" y="750"/>
      <point x="611" y="674"/>
      <point x="675" y="633" type="curve"/>
      <point x="675" y="633"/>
      <point x="516" y="535"/>
      <point x="340" y="638" type="curve"/>
      <point x="340" y="638"/>
      <point x="412" y="386"/>
      <point x="303" y="117" type="curve"/>
      <point x="303" y="117"/>
      <point x="544" y="125"/>
      <point x="655" y="161" type="curve"/>
      <point x="655" y="161"/>
      <point x="586" y="61"/>
      <point x="581" y="1" type="curve"/>
      <point x="30" y="0" type="line"/>
      <point x="30" y="0"/>
      <point x="305" y="288"/>
      <point x="215" y="657" type="curve"/>
      <point x="215" y="657"/>
      <point x="299" y="739"/>
      <point x="299" y="778" type="curve"/>
      <point x="299" y="778"/>
      <point x="385" y="643"/>
    </contour>
    <contour>
      <point x="551" y="474" type="curve"/>
      <point x="573" y="377"/>
      <point x="644" y="338"/>
      <point x="644" y="338" type="curve"/>
      <point x="600" y="312"/>
      <point x="527" y="308"/>
      <point x="527" y="308" type="curve"/>
      <point x="479" y="310"/>
      <point x="463" y="329"/>
      <point x="463" y="329" type="curve"/>
      <point x="352" y="442" type="line"/>
      <point x="429" y="398"/>
      <point x="551" y="474"/>
    </contour>
  </outline>
</glyph>
<glyph name="F" format="2">
  <advance width="691"/>
  <unicode hex="0046"/>
  <outline>
    <contour>
      <point x="553" y="479" type="curve"/>
      <point x="575" y="382"/>
      <point x="646" y="343"/>
      <point x="646" y="343" type="curve"/>
      <point x="602" y="317"/>
      <point x="529" y="313"/>
      <point x="529" y="313" type="curve"/>
      <point x="481" y="315"/>
      <point x="465" y="334"/>
      <point x="465" y="334" type="curve"/>
      <point x="354" y="447" type="line"/>
      <point x="431" y="403"/>
      <point x="553" y="479"/>
    </contour>
    <contour>
      <point x="592" y="750" type="curve"/>
      <point x="592" y="750"/>
      <point x="608" y="675"/>
      <point x="673" y="633" type="curve"/>
      <point x="673" y="633"/>
      <point x="494" y="544"/>
      <point x="341" y="642" type="curve"/>
      <point x="341" y="642"/>
      <point x="444" y="320"/>
      <point x="254" y="48" type="curve"/>
      <point x="30" y="-3" type="line"/>
      <point x="30" y="-3"/>
      <point x="310" y="279"/>
      <point x="219" y="660" type="curve"/>
      <point x="219" y="660"/>
      <point x="298" y="724"/>
      <point x="304" y="775" type="curve"/>
      <point x="304" y="775"/>
      <point x="394" y="649"/>
    </contour>
  </outline>
</glyph>
<glyph name="G" format="2">
  <advance width="788"/>
  <unicode hex="0047"/>
  <outline>
    <contour>
      <point x="773" y="634" type="curve"/>
      <point x="773" y="634"/>
      <point x="707" y="563"/>
      <point x="701" y="491" type="curve"/>
      <point x="701" y="491"/>
      <point x="588" y="639"/>
      <point x="423" y="610" type="curve"/>
      <point x="423" y="610"/>
      <point x="292" y="601"/>
      <point x="233" y="493" type="curve"/>
      <point x="233" y="493"/>
      <point x="145" y="353"/>
      <point x="265" y="211" type="curve"/>
      <point x="265" y="211"/>
      <point x="398" y="33"/>
      <point x="577" y="171" type="curve"/>
      <point x="577" y="171"/>
      <point x="608" y="195"/>
      <point x="625" y="231" type="curve"/>
      <point x="625" y="231"/>
      <point x="663" y="316"/>
      <point x="752" y="352" type="curve"/>
      <point x="818" y="220" type="line"/>
      <point x="818" y="220"/>
      <point x="758" y="211"/>
      <point x="729" y="160" type="curve"/>
      <point x="729" y="160"/>
      <point x="652" y="-16"/>
      <point x="425" y="-13" type="curve" smooth="yes"/>
      <point x="198" y="-10"/>
      <point x="66" y="165"/>
      <point x="70" y="332" type="curve"/>
      <point x="70" y="332"/>
      <point x="48" y="680"/>
      <point x="394" y="758" type="curve"/>
      <point x="394" y="758"/>
      <point x="605" y="803"/>
    </contour>
    <contour>
      <point x="403" y="335" type="curve"/>
      <point x="534" y="418" type="line"/>
      <point x="534" y="418"/>
      <point x="602" y="354"/>
      <point x="752" y="352" type="curve"/>
      <point x="752" y="352"/>
      <point x="610" y="212"/>
    </contour>
  </outline>
</glyph>
<glyph name="H" format="2">
  <advance width="739"/>
  <unicode hex="0048"/>
  <outline>
    <contour>
      <point x="191" y="632" type="line"/>
      <point x="191" y="632"/>
      <point x="276" y="305"/>
      <point x="5" y="1" type="curve"/>
      <point x="220" y="47" type="line"/>
      <point x="220" y="47"/>
      <point x="427" y="253"/>
      <point x="271" y="745" type="curve"/>
      <point x="271" y="745"/>
      <point x="252" y="685"/>
      <point x="191" y="634" type="curve"/>
    </contour>
    <contour>
      <point x="398" y="476" type="curve"/>
      <point x="398" y="476"/>
      <point x="501" y="427"/>
      <point x="535" y="426" type="curve" smooth="yes"/>
      <point x="572" y="425"/>
      <point x="577" y="446"/>
      <point x="577" y="446" type="curve"/>
      <point x="595" y="455" type="line"/>
      <point x="575" y="406" type="line"/>
      <point x="575" y="406"/>
      <point x="531" y="357"/>
      <point x="513" y="337" type="curve" smooth="yes"/>
      <point x="491" y="312"/>
      <point x="472" y="311"/>
      <point x="472" y="311" type="curve"/>
      <point x="425" y="298"/>
      <point x="326" y="324"/>
      <point x="326" y="324" type="curve"/>
      <point x="404" y="409"/>
      <point x="398" y="476"/>
    </contour>
    <contour>
      <point x="597" y="659" type="curve"/>
      <point x="597" y="659"/>
      <point x="680" y="688"/>
      <point x="724" y="769" type="curve"/>
      <point x="724" y="769"/>
      <point x="689" y="686"/>
      <point x="708" y="447" type="curve"/>
      <point x="708" y="447"/>
      <point x="729" y="225"/>
      <point x="683" y="8" type="curve"/>
      <point x="479" y="7" type="line"/>
      <point x="479" y="7"/>
      <point x="566" y="193"/>
      <point x="573" y="378" type="curve" smooth="yes"/>
      <point x="580" y="563"/>
      <point x="597" y="659"/>
    </contour>
  </outline>
</glyph>
<glyph name="I" format="2">
  <advance width="547"/>
  <unicode hex="0049"/>
  <outline>
    <contour>
      <point x="96" y="721" type="curve"/>
      <point x="96" y="721"/>
      <point x="160" y="673"/>
      <point x="183" y="589" type="curve"/>
      <point x="183" y="589"/>
      <point x="267" y="656"/>
      <point x="404" y="613" type="curve"/>
      <point x="404" y="613"/>
      <point x="476" y="602"/>
      <point x="535" y="640" type="curve"/>
      <point x="535" y="640"/>
      <point x="446" y="708"/>
      <point x="444" y="770" type="curve"/>
      <point x="444" y="770"/>
      <point x="335" y="704"/>
      <point x="244" y="742" type="curve"/>
      <point x="244" y="742"/>
      <point x="172" y="770"/>
    </contour>
    <contour>
      <point x="58" y="109" type="line"/>
      <point x="25" y="-1" type="line"/>
      <point x="513" y="-4" type="line"/>
      <point x="513" y="-4"/>
      <point x="513" y="66"/>
      <point x="567" y="146" type="curve"/>
      <point x="567" y="146"/>
      <point x="410" y="127"/>
      <point x="381" y="124" type="curve"/>
      <point x="381" y="124"/>
      <point x="403" y="265"/>
      <point x="393" y="411" type="curve"/>
      <point x="393" y="411"/>
      <point x="389" y="511"/>
      <point x="403" y="611" type="curve"/>
      <point x="403" y="611"/>
      <point x="339" y="605"/>
      <point x="283" y="536" type="curve"/>
      <point x="283" y="536"/>
      <point x="257" y="322"/>
      <point x="254" y="279" type="curve"/>
      <point x="254" y="279"/>
      <point x="234" y="135"/>
      <point x="213" y="108" type="curve"/>
    </contour>
  </outline>
</glyph>
<glyph name="J" format="2">
  <advance width="667"/>
  <unicode hex="004A"/>
  <outline>
    <contour>
      <point x="248" y="721" type="curve"/>
      <point x="248" y="721"/>
      <point x="312" y="673"/>
      <point x="335" y="589" type="curve"/>
      <point x="335" y="589"/>
      <point x="419" y="656"/>
      <point x="556" y="613" type="curve"/>
      <point x="556" y="613"/>
      <point x="628" y="602"/>
      <point x="687" y="640" type="curve"/>
      <point x="687" y="640"/>
      <point x="598" y="708"/>
      <point x="596" y="770" type="curve"/>
      <point x="596" y="770"/>
      <point x="487" y="704"/>
      <point x="396" y="742" type="curve"/>
      <point x="396" y="742"/>
      <point x="324" y="770"/>
    </contour>
    <contour>
      <point x="409" y="545" type="curve"/>
      <point x="409" y="545"/>
      <point x="396" y="353"/>
      <point x="393" y="324" type="curve" smooth="yes"/>
      <point x="390" y="295"/>
      <point x="377" y="163"/>
      <point x="343" y="79" type="curve" smooth="yes"/>
      <point x="309" y="-5"/>
      <point x="176" y="110"/>
      <point x="162" y="203" type="curve"/>
      <point x="28" y="115" type="line"/>
      <point x="28" y="115"/>
      <point x="48" y="35"/>
      <point x="112" y="-1" type="curve"/>
      <point x="112" y="-1"/>
      <point x="235" y="-65"/>
      <point x="376" y="28" type="curve"/>
      <point x="376" y="28"/>
      <point x="509" y="121"/>
      <point x="545" y="262" type="curve"/>
      <point x="545" y="262"/>
      <point x="551" y="318"/>
      <point x="545" y="426" type="curve" smooth="yes"/>
      <point x="541" y="494"/>
      <point x="550" y="608"/>
      <point x="555" y="622" type="curve"/>
      <point x="555" y="622"/>
      <point x="434" y="589"/>
    </contour>
  </outline>
</glyph>
<glyph name="K" format="2">
  <advance width="725"/>
  <unicode hex="004B"/>
  <outline>
    <contour>
      <point x="196" y="634" type="curve"/>
      <point x="257" y="685"/>
      <point x="276" y="745"/>
      <point x="276" y="745" type="curve"/>
      <point x="432" y="253"/>
      <point x="225" y="47"/>
      <point x="225" y="47" type="curve"/>
      <point x="10" y="1" type="line"/>
      <point x="10" y="1"/>
      <point x="265" y="284"/>
    </contour>
    <contour>
      <point x="329" y="383" type="curve"/>
      <point x="600" y="262"/>
      <point x="675" y="2"/>
      <point x="675" y="2" type="curve"/>
      <point x="510" y="1" type="line"/>
      <point x="455" y="175"/>
      <point x="371" y="239"/>
      <point x="371" y="239" type="curve"/>
      <point x="369" y="341"/>
      <point x="329" y="383"/>
    </contour>
    <contour>
      <point x="370" y="493" type="curve"/>
      <point x="509" y="541"/>
      <point x="552" y="691"/>
      <point x="552" y="691" type="curve"/>
      <point x="705" y="690" type="line"/>
      <point x="569" y="424"/>
      <point x="322" y="377"/>
      <point x="322" y="377" type="curve"/>
      <point x="354" y="407"/>
      <point x="370" y="493"/>
    </contour>
  </outline>
</glyph>
<glyph name="L" format="2">
  <advance width="717"/>
  <unicode hex="004C"/>
  <outline>
    <contour>
      <point x="145" y="679" type="curve"/>
      <point x="145" y="679"/>
      <point x="128" y="503"/>
      <point x="113" y="296" type="curve"/>
      <point x="113" y="296"/>
      <point x="99" y="147"/>
      <point x="30" y="-3" type="curve"/>
      <point x="610" y="-2" type="line"/>
      <point x="610" y="-2"/>
      <point x="608" y="75"/>
      <point x="663" y="149" type="curve"/>
      <point x="663" y="149"/>
      <point x="349" y="103"/>
      <point x="248" y="114" type="curve"/>
      <point x="248" y="114"/>
      <point x="274" y="282"/>
      <point x="263" y="398" type="curve"/>
      <point x="263" y="398"/>
      <point x="261" y="515"/>
      <point x="271" y="624" type="curve" smooth="yes"/>
      <point x="280" y="725"/>
      <point x="292" y="753"/>
      <point x="292" y="753" type="curve"/>
      <point x="292" y="753"/>
      <point x="219" y="695"/>
    </contour>
  </outline>
</glyph>
<glyph name="M" format="2">
  <advance width="901"/>
  <unicode hex="004D"/>
  <outline>
    <contour>
      <point x="154" y="632" type="curve"/>
      <point x="154" y="632"/>
      <point x="251" y="264"/>
      <point x="0" y="1" type="curve"/>
      <point x="170" y="59" type="line"/>
      <point x="170" y="59"/>
      <point x="338" y="201"/>
      <point x="328" y="558" type="curve"/>
      <point x="328" y="558"/>
      <point x="428" y="397"/>
      <point x="487" y="235" type="curve"/>
      <point x="487" y="235"/>
      <point x="652" y="509"/>
      <point x="868" y="581" type="curve"/>
      <point x="858" y="751" type="line"/>
      <point x="858" y="751"/>
      <point x="643" y="647"/>
      <point x="540" y="437" type="curve"/>
      <point x="540" y="437"/>
      <point x="418" y="670"/>
      <point x="300" y="751" type="curve"/>
      <point x="300" y="751"/>
      <point x="241" y="647"/>
    </contour>
    <contour>
      <point x="747" y="510" type="line"/>
      <point x="747" y="510"/>
      <point x="800" y="510"/>
      <point x="870" y="510" type="curve"/>
      <point x="870" y="510"/>
      <point x="887" y="373"/>
      <point x="879" y="226" type="curve"/>
      <point x="879" y="226"/>
      <point x="880" y="93"/>
      <point x="856" y="13" type="curve"/>
      <point x="657" y="11" type="line"/>
      <point x="657" y="11"/>
      <point x="755" y="177"/>
      <point x="748" y="470" type="curve" smooth="yes"/>
    </contour>
  </outline>
</glyph>
<glyph name="N" format="2">
  <advance width="892"/>
  <unicode hex="004E"/>
  <outline>
    <contour>
      <point x="10" y="-3" type="curve"/>
      <point x="174" y="37" type="line"/>
      <point x="441" y="345"/>
      <point x="317" y="750"/>
      <point x="317" y="750" type="curve"/>
      <point x="253" y="664"/>
      <point x="152" y="631"/>
      <point x="152" y="631" type="curve"/>
      <point x="277" y="263"/>
      <point x="10" y="-3"/>
    </contour>
    <contour>
      <point x="683" y="658" type="curve"/>
      <point x="683" y="658"/>
      <point x="665" y="517"/>
      <point x="655" y="330" type="curve"/>
      <point x="655" y="330"/>
      <point x="651" y="196"/>
      <point x="567" y="-1" type="curve"/>
      <point x="760" y="-1" type="line"/>
      <point x="760" y="-1"/>
      <point x="807" y="158"/>
      <point x="805" y="359" type="curve"/>
      <point x="805" y="359"/>
      <point x="792" y="662"/>
      <point x="852" y="759" type="curve"/>
      <point x="852" y="759"/>
      <point x="789" y="679"/>
    </contour>
    <contour>
      <point x="299" y="622" type="line"/>
      <point x="299" y="622"/>
      <point x="494" y="374"/>
      <point x="511" y="74" type="curve"/>
      <point x="511" y="74"/>
      <point x="544" y="140"/>
      <point x="637" y="185" type="curve"/>
      <point x="637" y="185"/>
      <point x="515" y="604"/>
      <point x="317" y="750" type="curve"/>
    </contour>
  </outline>
</glyph>
<glyph name="O" format="2">
  <advance width="858"/>
  <unicode hex="004F"/>
  <outline>
    <contour>
      <point x="20" y="299" type="curve"/>
      <point x="99" y="149" type="line"/>
      <point x="99" y="149"/>
      <point x="202" y="229"/>
      <point x="242" y="318" type="curve"/>
      <point x="242" y="318"/>
      <point x="257" y="337"/>
      <point x="264" y="401" type="curve"/>
      <point x="264" y="401"/>
      <point x="272" y="603"/>
      <point x="465" y="623" type="curve"/>
      <point x="465" y="623"/>
      <point x="707" y="650"/>
      <point x="731" y="394" type="curve"/>
      <point x="731" y="394"/>
      <point x="749" y="159"/>
      <point x="505" y="139" type="curve"/>
      <point x="505" y="139"/>
      <point x="345" y="121"/>
      <point x="218" y="275" type="curve"/>
      <point x="218" y="275"/>
      <point x="208" y="151"/>
      <point x="151" y="90" type="curve"/>
      <point x="151" y="90"/>
      <point x="265" y="-24"/>
      <point x="484" y="-18" type="curve"/>
      <point x="484" y="-18"/>
      <point x="813" y="-2"/>
      <point x="863" y="331" type="curve"/>
      <point x="863" y="331"/>
      <point x="917" y="748"/>
      <point x="507" y="762" type="curve"/>
      <point x="507" y="762"/>
      <point x="203" y="779"/>
      <point x="125" y="412" type="curve"/>
      <point x="125" y="412"/>
      <point x="117" y="373"/>
      <point x="96" y="352" type="curve" smooth="yes"/>
      <point x="76" y="331"/>
      <point x="21" y="299"/>
    </contour>
  </outline>
</glyph>
<glyph name="P" format="2">
  <advance width="709"/>
  <unicode hex="0050"/>
  <outline>
    <contour>
      <point x="100" y="672" type="curve"/>
      <point x="100" y="672"/>
      <point x="176" y="681"/>
      <point x="261" y="768" type="curve"/>
      <point x="261" y="768"/>
      <point x="202" y="706"/>
      <point x="215" y="428" type="curve"/>
      <point x="215" y="428"/>
      <point x="216" y="196"/>
      <point x="304" y="1" type="curve"/>
      <point x="109" y="0" type="line"/>
      <point x="109" y="0"/>
      <point x="50" y="395"/>
    </contour>
    <contour>
      <point x="261" y="587" type="curve"/>
      <point x="225" y="688" type="line"/>
      <point x="225" y="688"/>
      <point x="438" y="897"/>
      <point x="667" y="657" type="curve"/>
      <point x="667" y="657"/>
      <point x="611" y="626"/>
      <point x="588" y="538" type="curve"/>
      <point x="588" y="538"/>
      <point x="425" y="745"/>
    </contour>
    <contour>
      <point x="266" y="366" type="line"/>
      <point x="336" y="293"/>
      <point x="420" y="294"/>
      <point x="420" y="294" type="curve"/>
      <point x="538" y="305"/>
      <point x="543" y="428"/>
      <point x="543" y="428" type="curve"/>
      <point x="566" y="579"/>
      <point x="692" y="627"/>
      <point x="692" y="627" type="curve"/>
      <point x="759" y="500" type="line"/>
      <point x="662" y="476"/>
      <point x="661" y="414"/>
      <point x="661" y="414" type="curve"/>
      <point x="645" y="307"/>
      <point x="587" y="257"/>
      <point x="587" y="257" type="curve"/>
      <point x="410" y="85"/>
      <point x="226" y="267"/>
      <point x="226" y="267" type="curve"/>
    </contour>
  </outline>
</glyph>
<glyph name="Q" format="2">
  <advance width="910"/>
  <unicode hex="0051"/>
  <outline>
    <contour>
      <point x="30" y="299" type="line"/>
      <point x="31" y="299"/>
      <point x="85" y="331"/>
      <point x="105" y="352" type="curve" smooth="yes"/>
      <point x="125" y="373"/>
      <point x="133" y="412"/>
      <point x="133" y="412" type="curve"/>
      <point x="210" y="779"/>
      <point x="467" y="623"/>
      <point x="467" y="623" type="curve"/>
      <point x="277" y="603"/>
      <point x="270" y="401"/>
      <point x="270" y="401" type="curve"/>
      <point x="263" y="337"/>
      <point x="248" y="318"/>
      <point x="248" y="318" type="curve"/>
      <point x="209" y="229"/>
      <point x="120" y="213"/>
      <point x="120" y="213" type="curve"/>
    </contour>
    <contour>
      <point x="467" y="623" type="curve"/>
      <point x="307" y="609" type="line"/>
      <point x="187" y="560" type="line"/>
      <point x="286" y="753"/>
      <point x="501" y="760"/>
      <point x="501" y="760" type="curve"/>
      <point x="749" y="768"/>
      <point x="820" y="562"/>
      <point x="820" y="562" type="curve"/>
      <point x="925" y="333"/>
      <point x="748" y="124"/>
      <point x="748" y="124" type="curve"/>
      <point x="704" y="160"/>
      <point x="672" y="234"/>
      <point x="672" y="234" type="curve"/>
      <point x="734" y="317"/>
      <point x="719" y="409"/>
      <point x="719" y="409" type="curve"/>
      <point x="676" y="658"/>
      <point x="467" y="623"/>
    </contour>
    <contour>
      <point x="623" y="188" type="curve"/>
      <point x="623" y="188"/>
      <point x="689" y="87"/>
      <point x="855" y="117" type="curve"/>
      <point x="855" y="117"/>
      <point x="838" y="22"/>
      <point x="890" y="-24" type="curve"/>
      <point x="890" y="-24"/>
      <point x="831" y="-34"/>
      <point x="789" y="0" type="curve"/>
      <point x="789" y="0"/>
      <point x="770" y="16"/>
      <point x="756" y="38" type="curve" smooth="yes"/>
      <point x="742" y="60"/>
      <point x="727" y="98"/>
      <point x="727" y="98" type="curve"/>
      <point x="727" y="98"/>
      <point x="626" y="-8"/>
      <point x="442" y="-4" type="curve"/>
      <point x="442" y="-4"/>
      <point x="154" y="1"/>
      <point x="31" y="298" type="curve"/>
      <point x="192" y="315" type="line"/>
      <point x="192" y="315"/>
      <point x="358" y="48"/>
    </contour>
  </outline>
</glyph>
<glyph name="R" format="2">
  <advance width="732"/>
  <unicode hex="0052"/>
  <outline>
    <contour>
      <point x="100" y="669" type="curve"/>
      <point x="100" y="669"/>
      <point x="169" y="683"/>
      <point x="261" y="765" type="curve"/>
      <point x="261" y="765"/>
      <point x="202" y="703"/>
      <point x="215" y="425" type="curve"/>
      <point x="215" y="425"/>
      <point x="216" y="193"/>
      <point x="304" y="-2" type="curve"/>
      <point x="109" y="-3" type="line"/>
      <point x="109" y="-3"/>
      <point x="50" y="392"/>
    </contour>
    <contour>
      <point x="262" y="593" type="curve"/>
      <point x="227" y="682" type="line"/>
      <point x="227" y="682"/>
      <point x="390" y="866"/>
      <point x="620" y="686" type="curve"/>
      <point x="620" y="686"/>
      <point x="577" y="668"/>
      <point x="554" y="580" type="curve"/>
      <point x="554" y="580"/>
      <point x="413" y="731"/>
    </contour>
    <contour>
      <point x="701" y="535" type="line"/>
      <point x="625" y="521"/>
      <point x="606" y="426"/>
      <point x="606" y="426" type="curve"/>
      <point x="500" y="95"/>
      <point x="212" y="306"/>
      <point x="212" y="306" type="curve"/>
      <point x="249" y="390" type="line"/>
      <point x="319" y="335"/>
      <point x="387" y="342"/>
      <point x="387" y="342" type="curve"/>
      <point x="485" y="352"/>
      <point x="500" y="448"/>
      <point x="500" y="448" type="curve"/>
      <point x="524" y="608"/>
      <point x="641" y="650"/>
      <point x="641" y="650" type="curve"/>
    </contour>
    <contour>
      <point x="567" y="-2" type="line"/>
      <point x="567" y="-2"/>
      <point x="551" y="164"/>
      <point x="449" y="272" type="curve"/>
      <point x="552" y="334" type="line"/>
      <point x="552" y="334"/>
      <point x="685" y="208"/>
      <point x="742" y="50" type="curve"/>
    </contour>
  </outline>
</glyph>
<glyph name="S" format="2">
  <advance width="631"/>
  <unicode hex="0053"/>
  <outline>
    <contour>
      <point x="597" y="693" type="curve"/>
      <point x="383" y="826"/>
      <point x="231" y="734"/>
      <point x="231" y="734" type="curve"/>
      <point x="92" y="659"/>
      <point x="59" y="515"/>
      <point x="59" y="515" type="curve"/>
      <point x="191" y="503" type="line"/>
      <point x="201" y="578"/>
      <point x="247" y="608"/>
      <point x="247" y="608" type="curve"/>
      <point x="390" y="703"/>
      <point x="517" y="519"/>
      <point x="517" y="519" type="curve"/>
      <point x="534" y="606"/>
      <point x="597" y="693"/>
    </contour>
    <contour>
      <point x="84" y="468" type="curve"/>
      <point x="162" y="393" type="line"/>
      <point x="162" y="393"/>
      <point x="515" y="449"/>
      <point x="493" y="225" type="curve"/>
      <point x="493" y="225"/>
      <point x="542" y="219"/>
      <point x="610" y="228" type="curve"/>
      <point x="610" y="228"/>
      <point x="639" y="503"/>
      <point x="258" y="511" type="curve"/>
      <point x="258" y="511"/>
      <point x="166" y="513"/>
    </contour>
    <contour>
      <point x="29" y="101" type="curve"/>
      <point x="187" y="-91"/>
      <point x="438" y="1"/>
      <point x="438" y="1" type="curve"/>
      <point x="612" y="65"/>
      <point x="610" y="228"/>
      <point x="610" y="228" type="curve"/>
      <point x="493" y="225" type="line"/>
      <point x="469" y="104"/>
      <point x="345" y="114"/>
      <point x="345" y="114" type="curve"/>
      <point x="186" y="114"/>
      <point x="138" y="261"/>
      <point x="138" y="261" type="curve"/>
      <point x="92" y="147"/>
      <point x="29" y="101"/>
    </contour>
  </outline>
</glyph>
<glyph name="T" format="2">
  <advance width="634"/>
  <unicode hex="0054"/>
  <outline>
    <contour>
      <point x="-20" y="731" type="curve"/>
      <point x="-20" y="731"/>
      <point x="63" y="691"/>
      <point x="102" y="585" type="curve"/>
      <point x="102" y="585"/>
      <point x="228" y="586"/>
      <point x="266" y="589" type="curve" smooth="yes"/>
      <point x="431" y="598" type="line"/>
      <point x="431" y="598"/>
      <point x="522" y="607"/>
      <point x="664" y="588" type="curve"/>
      <point x="606" y="762" type="line"/>
      <point x="606" y="762"/>
      <point x="458" y="765"/>
      <point x="377" y="744" type="curve"/>
      <point x="377" y="744"/>
      <point x="155" y="703"/>
    </contour>
    <contour>
      <point x="210" y="3" type="curve"/>
      <point x="402" y="3" type="line"/>
      <point x="402" y="3"/>
      <point x="419" y="170"/>
      <point x="414" y="292" type="curve" smooth="yes"/>
      <point x="410" y="397"/>
      <point x="421" y="560"/>
      <point x="457" y="614" type="curve"/>
      <point x="457" y="614"/>
      <point x="355" y="522"/>
      <point x="290" y="518" type="curve"/>
      <point x="290" y="518"/>
      <point x="283" y="186"/>
    </contour>
  </outline>
</glyph>
<glyph name="U" format="2">
  <advance width="722"/>
  <unicode hex="0055"/>
  <outline>
    <contour>
      <point x="190" y="728" type="line"/>
      <point x="190" y="728"/>
      <point x="-155" y="40"/>
      <point x="258" y="-15" type="curve"/>
      <point x="258" y="-15"/>
      <point x="385" y="-18"/>
      <point x="422" y="9" type="curve"/>
      <point x="422" y="9"/>
      <point x="434" y="105"/>
      <point x="529" y="200" type="curve"/>
      <point x="529" y="200"/>
      <point x="380" y="117"/>
      <point x="279" y="146" type="curve"/>
      <point x="279" y="146"/>
      <point x="134" y="167"/>
      <point x="215" y="427" type="curve"/>
      <point x="215" y="427"/>
      <point x="281" y="608"/>
      <point x="371" y="730" type="curve"/>
    </contour>
    <contour>
      <point x="509" y="732" type="line"/>
      <point x="509" y="732"/>
      <point x="584" y="260"/>
      <point x="488" y="6" type="curve"/>
      <point x="633" y="65" type="line"/>
      <point x="633" y="65"/>
      <point x="719" y="406"/>
      <point x="674" y="732" type="curve"/>
    </contour>
  </outline>
</glyph>
<glyph name="V" format="2">
  <advance width="822"/>
  <unicode hex="0056"/>
  <outline>
    <contour>
      <point x="60" y="722" type="curve"/>
      <point x="239" y="722" type="line"/>
      <point x="239" y="722"/>
      <point x="243" y="441"/>
      <point x="416" y="145" type="curve"/>
      <point x="273" y="173" type="line"/>
      <point x="273" y="173"/>
      <point x="128" y="385"/>
    </contour>
    <contour>
      <point x="912" y="745" type="line"/>
      <point x="648" y="505"/>
      <point x="594" y="77"/>
      <point x="594" y="77" type="curve"/>
      <point x="554" y="61"/>
      <point x="460" y="-2"/>
      <point x="460" y="-2" type="curve"/>
      <point x="377" y="44"/>
      <point x="319" y="115"/>
      <point x="319" y="115" type="curve"/>
      <point x="503" y="171" type="line"/>
      <point x="535" y="478"/>
      <point x="682" y="684"/>
      <point x="682" y="684" type="curve"/>
    </contour>
  </outline>
</glyph>
<glyph name="W" format="2">
  <advance width="1053"/>
  <unicode hex="0057"/>
  <outline>
    <contour>
      <point x="60" y="728" type="curve"/>
      <point x="240" y="728" type="line"/>
      <point x="240" y="728"/>
      <point x="244" y="446"/>
      <point x="419" y="147" type="curve"/>
      <point x="275" y="174" type="line"/>
      <point x="275" y="174"/>
      <point x="129" y="388"/>
    </contour>
    <contour>
      <point x="604" y="349" type="line"/>
      <point x="562" y="229"/>
      <point x="546" y="65"/>
      <point x="546" y="65" type="curve"/>
      <point x="505" y="48"/>
      <point x="449" y="-7"/>
      <point x="449" y="-7" type="curve"/>
      <point x="366" y="40"/>
      <point x="321" y="116"/>
      <point x="321" y="116" type="curve"/>
      <point x="457" y="156" type="line"/>
      <point x="488" y="465"/>
      <point x="545" y="630"/>
      <point x="545" y="630" type="curve"/>
    </contour>
    <contour>
      <point x="918" y="687" type="curve"/>
      <point x="1153" y="751" type="line"/>
      <point x="1153" y="751"/>
      <point x="883" y="497"/>
      <point x="841" y="73" type="curve"/>
      <point x="841" y="73"/>
      <point x="751" y="29"/>
      <point x="720" y="-8" type="curve"/>
      <point x="720" y="-8"/>
      <point x="612" y="69"/>
      <point x="555" y="178" type="curve"/>
      <point x="567" y="325" type="line"/>
      <point x="546" y="630" type="line"/>
      <point x="546" y="630"/>
      <point x="583" y="380"/>
      <point x="703" y="149" type="curve"/>
      <point x="739" y="158" type="line"/>
      <point x="739" y="158"/>
      <point x="744" y="416"/>
    </contour>
  </outline>
</glyph>
<glyph name="X" format="2">
  <advance width="831"/>
  <unicode hex="0058"/>
  <outline>
    <contour>
      <point x="76" y="777" type="curve"/>
      <point x="76" y="777"/>
      <point x="90" y="702"/>
      <point x="62" y="585" type="curve"/>
      <point x="62" y="585"/>
      <point x="235" y="558"/>
      <point x="304" y="404" type="curve"/>
      <point x="418" y="356" type="line"/>
      <point x="418" y="356"/>
      <point x="376" y="635"/>
    </contour>
    <contour>
      <point x="831" y="724" type="curve"/>
      <point x="831" y="724"/>
      <point x="737" y="719"/>
      <point x="631" y="721" type="curve"/>
      <point x="631" y="721"/>
      <point x="602" y="553"/>
      <point x="453" y="472" type="curve"/>
      <point x="418" y="356" type="line"/>
      <point x="418" y="356"/>
      <point x="689" y="424"/>
    </contour>
    <contour>
      <point x="68" y="184" type="curve"/>
      <point x="30" y="7" type="line"/>
      <point x="30" y="7"/>
      <point x="279" y="83"/>
      <point x="418" y="356" type="curve"/>
      <point x="418" y="356"/>
      <point x="338" y="321"/>
      <point x="264" y="321" type="curve"/>
      <point x="264" y="321"/>
      <point x="239" y="252"/>
    </contour>
    <contour>
      <point x="411" y="216" type="line"/>
      <point x="411" y="216"/>
      <point x="523" y="168"/>
      <point x="600" y="12" type="curve"/>
      <point x="806" y="10" type="line"/>
      <point x="806" y="10"/>
      <point x="762" y="144"/>
      <point x="537" y="294" type="curve" smooth="yes"/>
      <point x="477" y="334"/>
      <point x="418" y="356"/>
      <point x="418" y="356" type="curve"/>
    </contour>
  </outline>
</glyph>
<glyph name="Y" format="2">
  <advance width="708"/>
  <unicode hex="0059"/>
  <outline>
    <contour>
      <point x="181" y="-9" type="curve"/>
      <point x="391" y="1" type="line"/>
      <point x="391" y="1"/>
      <point x="403" y="63"/>
      <point x="402" y="154" type="curve" smooth="yes"/>
      <point x="400" y="290"/>
      <point x="397" y="389"/>
      <point x="397" y="389" type="curve"/>
      <point x="397" y="389"/>
      <point x="369" y="324"/>
      <point x="252" y="286" type="curve"/>
      <point x="252" y="286"/>
      <point x="260" y="232"/>
      <point x="248" y="149" type="curve"/>
      <point x="248" y="149"/>
      <point x="227" y="59"/>
    </contour>
    <contour>
      <point x="101" y="770" type="curve"/>
      <point x="101" y="770"/>
      <point x="99" y="702"/>
      <point x="40" y="627" type="curve"/>
      <point x="40" y="627"/>
      <point x="232" y="576"/>
      <point x="250" y="394" type="curve"/>
      <point x="364" y="346" type="line"/>
      <point x="364" y="346"/>
      <point x="401" y="628"/>
    </contour>
    <contour>
      <point x="738" y="714" type="curve"/>
      <point x="738" y="714"/>
      <point x="644" y="709"/>
      <point x="538" y="711" type="curve"/>
      <point x="538" y="711"/>
      <point x="529" y="556"/>
      <point x="399" y="462" type="curve"/>
      <point x="364" y="346" type="line"/>
      <point x="364" y="346"/>
      <point x="636" y="426"/>
    </contour>
  </outline>
</glyph>
<glyph name="Z" format="2">
  <advance width="713"/>
  <unicode hex="005A"/>
  <outline>
    <contour>
      <point x="154" y="727" type="curve"/>
      <point x="154" y="727"/>
      <point x="151" y="653"/>
      <point x="41" y="576" type="curve"/>
      <point x="41" y="576"/>
      <point x="226" y="634"/>
      <point x="473" y="573" type="curve"/>
      <point x="473" y="573"/>
      <point x="447" y="428"/>
      <point x="100" y="182" type="curve"/>
      <point x="100" y="182"/>
      <point x="161" y="136"/>
      <point x="209" y="110" type="curve"/>
      <point x="209" y="110"/>
      <point x="567" y="347"/>
      <point x="641" y="562" type="curve" smooth="yes"/>
      <point x="689" y="721" type="line"/>
      <point x="689" y="721"/>
      <point x="633" y="710"/>
      <point x="574" y="709" type="curve"/>
      <point x="574" y="709"/>
      <point x="511" y="708"/>
      <point x="449" y="713" type="curve"/>
      <point x="449" y="713"/>
      <point x="225" y="734"/>
    </contour>
    <contour>
      <point x="25" y="-1" type="curve"/>
      <point x="598" y="-1" type="line"/>
      <point x="598" y="-1"/>
      <point x="606" y="93"/>
      <point x="653" y="153" type="curve"/>
      <point x="653" y="153"/>
      <point x="454" y="118"/>
      <point x="369" y="116" type="curve"/>
      <point x="369" y="116"/>
      <point x="85" y="108"/>
      <point x="68" y="112" type="curve"/>
      <point x="68" y="112"/>
      <point x="28" y="3"/>
    </contour>
  </outline>
</glyph>
<glyph name="bracketleft" format="2">
  <advance width="500"/>
  <unicode hex="005B"/>
  <outline>
    <contour>
      <point x="116" y="677" type="curve"/>
      <point x="116" y="677"/>
      <point x="210" y="689"/>
      <point x="259" y="749" type="curve"/>
      <point x="259" y="749"/>
      <point x="393" y="726"/>
      <point x="462" y="739" type="curve"/>
      <point x="462" y="739"/>
      <point x="435" y="653"/>
      <point x="461" y="581" type="curve"/>
      <point x="461" y="581"/>
      <point x="381" y="579"/>
      <point x="331" y="593" type="curve"/>
      <point x="331" y="593"/>
      <point x="302" y="598"/>
      <point x="287" y="639" type="curve"/>
      <point x="287" y="639"/>
      <point x="267" y="704"/>
      <point x="269" y="722" type="curve"/>
      <point x="269" y="722"/>
      <point x="237" y="691"/>
      <point x="228" y="404" type="curve"/>
      <point x="228" y="404"/>
      <point x="231" y="254"/>
      <point x="216" y="89" type="curve"/>
      <point x="216" y="89"/>
      <point x="211" y="46"/>
      <point x="215" y="-11" type="curve"/>
      <point x="215" y="-11"/>
      <point x="226" y="72"/>
      <point x="256" y="99" type="curve"/>
      <point x="256" y="99"/>
      <point x="280" y="127"/>
      <point x="314" y="128" type="curve" smooth="yes"/>
      <point x="348" y="129"/>
      <point x="380" y="131"/>
      <point x="380" y="131" type="curve"/>
      <point x="380" y="131"/>
      <point x="373" y="45"/>
      <point x="409" y="-27" type="curve"/>
      <point x="409" y="-27"/>
      <point x="256" y="-16"/>
      <point x="158" y="-46" type="curve"/>
      <point x="158" y="-46"/>
      <point x="148" y="58"/>
      <point x="43" y="102" type="curve"/>
      <point x="43" y="102"/>
      <point x="85" y="201"/>
      <point x="90" y="385" type="curve"/>
      <point x="90" y="385"/>
      <point x="112" y="658"/>
    </contour>
  </outline>
</glyph>
<glyph name="backslash" format="2">
  <advance width="541"/>
  <unicode hex="005C"/>
  <outline>
    <contour>
      <point x="516" y="2" type="line"/>
      <point x="411" y="343"/>
      <point x="62" y="750"/>
      <point x="62" y="750" type="curve"/>
      <point x="25" y="625" type="line"/>
      <point x="235" y="417"/>
      <point x="364" y="46"/>
      <point x="364" y="46" type="curve"/>
    </contour>
  </outline>
</glyph>
<glyph name="bracketright" format="2">
  <advance width="500"/>
  <unicode hex="005D"/>
  <outline>
    <contour>
      <point x="389" y="677" type="curve"/>
      <point x="393" y="658"/>
      <point x="415" y="385"/>
      <point x="415" y="385" type="curve"/>
      <point x="420" y="201"/>
      <point x="462" y="102"/>
      <point x="462" y="102" type="curve"/>
      <point x="357" y="58"/>
      <point x="347" y="-46"/>
      <point x="347" y="-46" type="curve"/>
      <point x="249" y="-16"/>
      <point x="96" y="-27"/>
      <point x="96" y="-27" type="curve"/>
      <point x="132" y="45"/>
      <point x="125" y="131"/>
      <point x="125" y="131" type="curve"/>
      <point x="125" y="131"/>
      <point x="157" y="129"/>
      <point x="191" y="128" type="curve" smooth="yes"/>
      <point x="225" y="127"/>
      <point x="249" y="99"/>
      <point x="249" y="99" type="curve"/>
      <point x="279" y="72"/>
      <point x="290" y="-11"/>
      <point x="290" y="-11" type="curve"/>
      <point x="294" y="46"/>
      <point x="289" y="89"/>
      <point x="289" y="89" type="curve"/>
      <point x="274" y="254"/>
      <point x="277" y="404"/>
      <point x="277" y="404" type="curve"/>
      <point x="268" y="691"/>
      <point x="236" y="722"/>
      <point x="236" y="722" type="curve"/>
      <point x="238" y="704"/>
      <point x="218" y="639"/>
      <point x="218" y="639" type="curve"/>
      <point x="203" y="598"/>
      <point x="174" y="593"/>
      <point x="174" y="593" type="curve"/>
      <point x="124" y="579"/>
      <point x="44" y="581"/>
      <point x="44" y="581" type="curve"/>
      <point x="70" y="653"/>
      <point x="43" y="739"/>
      <point x="43" y="739" type="curve"/>
      <point x="112" y="726"/>
      <point x="246" y="749"/>
      <point x="246" y="749" type="curve"/>
      <point x="295" y="689"/>
      <point x="389" y="677"/>
    </contour>
  </outline>
</glyph>
<glyph name="a" format="2">
  <advance width="565"/>
  <unicode hex="0061"/>
  <outline>
    <contour>
      <point x="366" y="317" type="curve"/>
      <point x="323" y="224" type="line"/>
      <point x="323" y="224"/>
      <point x="147" y="230"/>
      <point x="159" y="156" type="curve" smooth="yes"/>
      <point x="170" y="83"/>
      <point x="297" y="82"/>
      <point x="375" y="167" type="curve"/>
      <point x="375" y="167"/>
      <point x="347" y="102"/>
      <point x="373" y="10" type="curve"/>
      <point x="373" y="10"/>
      <point x="284" y="-45"/>
      <point x="139" y="3" type="curve"/>
      <point x="139" y="3"/>
      <point x="8" y="46"/>
      <point x="33" y="169" type="curve"/>
      <point x="33" y="169"/>
      <point x="36" y="278"/>
      <point x="196" y="312" type="curve" smooth="yes"/>
      <point x="356" y="346"/>
      <point x="196" y="312"/>
      <point x="196" y="312" type="curve"/>
      <point x="196" y="312"/>
      <point x="276" y="329"/>
    </contour>
    <contour>
      <point x="140" y="466" type="curve"/>
      <point x="140" y="466"/>
      <point x="111" y="372"/>
      <point x="83" y="307" type="curve"/>
      <point x="83" y="307"/>
      <point x="351" y="510"/>
      <point x="366" y="317" type="curve"/>
      <point x="366" y="317"/>
      <point x="346" y="77"/>
      <point x="476" y="-1" type="curve"/>
      <point x="565" y="138" type="line"/>
      <point x="565" y="138"/>
      <point x="516" y="147"/>
      <point x="492" y="191" type="curve"/>
      <point x="451" y="236"/>
      <point x="508" y="363"/>
      <point x="406" y="485" type="curve"/>
      <point x="406" y="485"/>
      <point x="355" y="558"/>
    </contour>
    <contour>
      <point x="393" y="496" type="curve"/>
      <point x="417" y="471" type="line"/>
      <point x="417" y="471"/>
      <point x="430" y="452"/>
      <point x="417" y="471" type="curve" smooth="yes"/>
      <point x="406" y="487"/>
      <point x="393" y="496"/>
    </contour>
    <contour>
      <point x="393" y="471" type="line"/>
      <point x="393" y="496" type="line"/>
    </contour>
  </outline>
</glyph>
<glyph name="b" format="2">
  <advance width="556"/>
  <unicode hex="0062"/>
  <outline>
    <contour>
      <point x="204" y="429" type="curve"/>
      <point x="345" y="577"/>
      <point x="521" y="449"/>
      <point x="521" y="449" type="curve"/>
      <point x="491" y="387"/>
      <point x="479" y="303"/>
      <point x="479" y="303" type="curve"/>
      <point x="333" y="457"/>
      <point x="236" y="354"/>
      <point x="236" y="354" type="curve"/>
      <point x="221" y="382"/>
      <point x="204" y="429"/>
    </contour>
    <contour>
      <point x="237" y="132" type="curve"/>
      <point x="237" y="132"/>
      <point x="212" y="115"/>
      <point x="169" y="102" type="curve"/>
      <point x="169" y="102"/>
      <point x="279" y="-89"/>
      <point x="467" y="37" type="curve"/>
      <point x="467" y="37"/>
      <point x="547" y="87"/>
      <point x="564" y="208" type="curve"/>
      <point x="564" y="208"/>
      <point x="566" y="254"/>
      <point x="624" y="275" type="curve"/>
      <point x="561" y="394" type="line"/>
      <point x="561" y="394"/>
      <point x="474" y="346"/>
      <point x="459" y="234" type="curve"/>
      <point x="459" y="234"/>
      <point x="424" y="15"/>
    </contour>
    <contour>
      <point x="72" y="665" type="curve"/>
      <point x="72" y="665"/>
      <point x="87" y="632"/>
      <point x="94" y="467" type="curve" smooth="yes"/>
      <point x="101" y="302"/>
      <point x="41" y="115"/>
      <point x="-11" y="-5" type="curve"/>
      <point x="153" y="40" type="line"/>
      <point x="153" y="40"/>
      <point x="221" y="230"/>
      <point x="201" y="481" type="curve"/>
      <point x="201" y="481"/>
      <point x="192" y="617"/>
      <point x="190" y="738" type="curve"/>
      <point x="190" y="738"/>
      <point x="137" y="689"/>
    </contour>
  </outline>
</glyph>
<glyph name="c" format="2">
  <advance width="504"/>
  <unicode hex="0063"/>
  <outline>
    <contour>
      <point x="493" y="424" type="curve"/>
      <point x="493" y="424"/>
      <point x="448" y="381"/>
      <point x="441" y="296" type="curve"/>
      <point x="441" y="296"/>
      <point x="376" y="389"/>
      <point x="266" y="379" type="curve"/>
      <point x="266" y="379"/>
      <point x="142" y="371"/>
      <point x="139" y="238" type="curve"/>
      <point x="139" y="238"/>
      <point x="128" y="105"/>
      <point x="275" y="98" type="curve"/>
      <point x="275" y="98"/>
      <point x="340" y="95"/>
      <point x="373" y="151" type="curve"/>
      <point x="373" y="151"/>
      <point x="404" y="222"/>
      <point x="472" y="240" type="curve"/>
      <point x="524" y="144" type="line"/>
      <point x="524" y="144"/>
      <point x="483" y="130"/>
      <point x="461" y="94" type="curve"/>
      <point x="461" y="94"/>
      <point x="405" y="-14"/>
      <point x="266" y="-15" type="curve"/>
      <point x="266" y="-15"/>
      <point x="20" y="-25"/>
      <point x="20" y="242" type="curve"/>
      <point x="20" y="242"/>
      <point x="30" y="488"/>
      <point x="263" y="508" type="curve"/>
      <point x="263" y="508"/>
      <point x="396" y="519"/>
    </contour>
  </outline>
</glyph>
<glyph name="d" format="2">
  <advance width="587"/>
  <unicode hex="0064"/>
  <outline>
    <contour>
      <point x="406" y="60" type="curve"/>
      <point x="265" y="-88"/>
      <point x="89" y="40"/>
      <point x="89" y="40" type="curve"/>
      <point x="119" y="102"/>
      <point x="131" y="186"/>
      <point x="131" y="186" type="curve"/>
      <point x="277" y="32"/>
      <point x="374" y="135"/>
      <point x="374" y="135" type="curve"/>
      <point x="389" y="107"/>
      <point x="406" y="60"/>
    </contour>
    <contour>
      <point x="369" y="334" type="curve"/>
      <point x="369" y="334"/>
      <point x="398" y="374"/>
      <point x="441" y="387" type="curve"/>
      <point x="441" y="387"/>
      <point x="331" y="576"/>
      <point x="143" y="452" type="curve"/>
      <point x="143" y="452"/>
      <point x="63" y="400"/>
      <point x="46" y="281" type="curve"/>
      <point x="46" y="281"/>
      <point x="44" y="235"/>
      <point x="-14" y="214" type="curve"/>
      <point x="49" y="95" type="line"/>
      <point x="49" y="95"/>
      <point x="136" y="143"/>
      <point x="151" y="255" type="curve"/>
      <point x="151" y="255"/>
      <point x="181" y="448"/>
    </contour>
    <contour>
      <point x="453" y="665" type="curve"/>
      <point x="453" y="665"/>
      <point x="432" y="584"/>
      <point x="435" y="461" type="curve" smooth="yes"/>
      <point x="440" y="248"/>
      <point x="445" y="112"/>
      <point x="375" y="-9" type="curve"/>
      <point x="539" y="36" type="line"/>
      <point x="539" y="36"/>
      <point x="569" y="114"/>
      <point x="550" y="412" type="curve"/>
      <point x="550" y="412"/>
      <point x="537" y="627"/>
      <point x="589" y="749" type="curve"/>
      <point x="589" y="749"/>
      <point x="529" y="694"/>
    </contour>
  </outline>
</glyph>
<glyph name="e" format="2">
  <advance width="526"/>
  <unicode hex="0065"/>
  <outline>
    <contour>
      <point x="436" y="247" type="curve"/>
      <point x="436" y="247"/>
      <point x="406" y="419"/>
      <point x="274" y="399" type="curve"/>
      <point x="274" y="399"/>
      <point x="147" y="385"/>
      <point x="161" y="232" type="curve"/>
      <point x="161" y="232"/>
      <point x="164" y="99"/>
      <point x="294" y="105" type="curve"/>
      <point x="294" y="105"/>
      <point x="377" y="100"/>
      <point x="454" y="187" type="curve"/>
      <point x="454" y="187"/>
      <point x="457" y="98"/>
      <point x="495" y="44" type="curve"/>
      <point x="495" y="44"/>
      <point x="429" y="-9"/>
      <point x="293" y="-17" type="curve"/>
      <point x="293" y="-17"/>
      <point x="50" y="-40"/>
      <point x="35" y="227" type="curve"/>
      <point x="35" y="227"/>
      <point x="17" y="478"/>
      <point x="277" y="509" type="curve"/>
      <point x="277" y="509"/>
      <point x="450" y="536"/>
      <point x="526" y="336" type="curve"/>
      <point x="526" y="336"/>
      <point x="458" y="270"/>
    </contour>
    <contour>
      <point x="215" y="193" type="curve"/>
      <point x="215" y="193"/>
      <point x="190" y="277"/>
      <point x="156" y="303" type="curve"/>
      <point x="156" y="303"/>
      <point x="231" y="338"/>
      <point x="294" y="335" type="curve"/>
      <point x="294" y="335"/>
      <point x="397" y="336"/>
      <point x="436" y="247" type="curve"/>
      <point x="436" y="247"/>
      <point x="328" y="263"/>
    </contour>
  </outline>
</glyph>
<glyph name="f" format="2">
  <advance width="455"/>
  <unicode hex="0066"/>
  <outline>
    <contour>
      <point x="17" y="409" type="curve"/>
      <point x="17" y="409"/>
      <point x="84" y="363"/>
      <point x="101" y="283" type="curve"/>
      <point x="101" y="283"/>
      <point x="131" y="307"/>
      <point x="168" y="306" type="curve"/>
      <point x="168" y="306"/>
      <point x="167" y="183"/>
      <point x="84" y="1" type="curve"/>
      <point x="280" y="47" type="line"/>
      <point x="280" y="47"/>
      <point x="332" y="199"/>
      <point x="317" y="391" type="curve"/>
      <point x="317" y="391"/>
      <point x="311" y="569"/>
      <point x="328" y="632" type="curve"/>
      <point x="328" y="632"/>
      <point x="264" y="540"/>
      <point x="181" y="527" type="curve"/>
      <point x="181" y="527"/>
      <point x="182" y="450"/>
      <point x="178" y="423" type="curve"/>
      <point x="178" y="423"/>
      <point x="99" y="462"/>
    </contour>
    <contour>
      <point x="306" y="417" type="curve"/>
      <point x="306" y="417"/>
      <point x="329" y="353"/>
      <point x="341" y="342" type="curve" smooth="yes"/>
      <point x="353" y="331"/>
      <point x="359" y="314"/>
      <point x="415" y="316" type="curve" smooth="yes"/>
      <point x="472" y="318"/>
      <point x="506" y="344"/>
      <point x="506" y="344" type="curve"/>
      <point x="506" y="344"/>
      <point x="446" y="385"/>
      <point x="422" y="468" type="curve"/>
      <point x="422" y="468"/>
      <point x="380" y="428"/>
      <point x="312" y="427" type="curve" smooth="yes"/>
      <point x="243" y="426"/>
      <point x="306" y="417"/>
    </contour>
    <contour>
      <point x="583" y="709" type="line"/>
      <point x="574" y="709"/>
      <point x="514" y="763"/>
      <point x="440" y="731" type="curve" smooth="yes"/>
      <point x="366" y="699"/>
      <point x="298" y="593"/>
      <point x="298" y="593" type="curve"/>
      <point x="298" y="593"/>
      <point x="262" y="517"/>
      <point x="320" y="582" type="curve" smooth="yes"/>
      <point x="378" y="647"/>
      <point x="503" y="590"/>
      <point x="503" y="590" type="curve"/>
    </contour>
  </outline>
</glyph>
<glyph name="g" format="2">
  <advance width="612"/>
  <unicode hex="0067"/>
  <outline>
    <contour>
      <point x="20" y="226" type="line"/>
      <point x="83" y="111" type="line"/>
      <point x="83" y="111"/>
      <point x="159" y="148"/>
      <point x="184" y="254" type="curve"/>
      <point x="184" y="254"/>
      <point x="198" y="401"/>
      <point x="308" y="405" type="curve"/>
      <point x="308" y="405"/>
      <point x="442" y="429"/>
      <point x="456" y="252" type="curve"/>
      <point x="456" y="252"/>
      <point x="462" y="107"/>
      <point x="308" y="116" type="curve"/>
      <point x="308" y="116"/>
      <point x="217" y="122"/>
      <point x="165" y="199" type="curve"/>
      <point x="165" y="199"/>
      <point x="155" y="98"/>
      <point x="125" y="54" type="curve"/>
      <point x="125" y="54"/>
      <point x="211" y="-9"/>
      <point x="310" y="-5" type="curve"/>
      <point x="310" y="-5"/>
      <point x="410" y="-3"/>
      <point x="458" y="121" type="curve"/>
      <point x="458" y="121"/>
      <point x="458" y="-29"/>
      <point x="387" y="-191" type="curve"/>
      <point x="571" y="5" type="line"/>
      <point x="571" y="5"/>
      <point x="581" y="42"/>
      <point x="575" y="188" type="curve"/>
      <point x="575" y="188"/>
      <point x="551" y="448"/>
      <point x="602" y="560" type="curve"/>
      <point x="602" y="560"/>
      <point x="565" y="495"/>
      <point x="482" y="467" type="curve"/>
      <point x="475" y="398" type="line"/>
      <point x="475" y="398"/>
      <point x="435" y="515"/>
      <point x="294" y="508" type="curve"/>
      <point x="294" y="508"/>
      <point x="157" y="512"/>
      <point x="94" y="338" type="curve"/>
      <point x="94" y="338"/>
      <point x="81" y="298"/>
      <point x="79" y="290" type="curve"/>
      <point x="79" y="290"/>
      <point x="71" y="254"/>
      <point x="48" y="242" type="curve" smooth="yes"/>
    </contour>
    <contour>
      <point x="72" y="-96" type="line"/>
      <point x="86" y="-173"/>
      <point x="148" y="-217"/>
      <point x="148" y="-217" type="curve"/>
      <point x="227" y="-273"/>
      <point x="351" y="-222"/>
      <point x="351" y="-222" type="curve"/>
      <point x="509" y="-164"/>
      <point x="572" y="6"/>
      <point x="572" y="6" type="curve"/>
      <point x="572" y="6"/>
      <point x="450" y="164"/>
      <point x="458" y="120" type="curve" smooth="yes"/>
      <point x="473" y="40"/>
      <point x="409" y="-160"/>
      <point x="319" y="-154" type="curve" smooth="yes"/>
      <point x="229" y="-148"/>
      <point x="196" y="-16"/>
      <point x="196" y="-16" type="curve"/>
    </contour>
  </outline>
</glyph>
<glyph name="h" format="2">
  <advance width="628"/>
  <unicode hex="0068"/>
  <outline>
    <contour>
      <point x="126" y="655" type="line"/>
      <point x="126" y="655"/>
      <point x="111" y="493"/>
      <point x="105" y="344" type="curve"/>
      <point x="105" y="344"/>
      <point x="104" y="185"/>
      <point x="20" y="-4" type="curve"/>
      <point x="217" y="46" type="line"/>
      <point x="217" y="46"/>
      <point x="253" y="166"/>
      <point x="248" y="349" type="curve"/>
      <point x="248" y="349"/>
      <point x="219" y="588"/>
      <point x="256" y="761" type="curve"/>
      <point x="256" y="761"/>
      <point x="223" y="684"/>
      <point x="133" y="657" type="curve" smooth="yes"/>
    </contour>
    <contour>
      <point x="298" y="489" type="curve"/>
      <point x="241" y="332" type="line"/>
      <point x="241" y="332"/>
      <point x="399" y="484"/>
      <point x="437" y="385" type="curve"/>
      <point x="437" y="385"/>
      <point x="498" y="250"/>
      <point x="380" y="8" type="curve"/>
      <point x="550" y="7" type="line"/>
      <point x="550" y="7"/>
      <point x="676" y="522"/>
      <point x="406" y="515" type="curve"/>
      <point x="406" y="515"/>
      <point x="341" y="511"/>
    </contour>
  </outline>
</glyph>
<glyph name="i" format="2">
  <advance width="291"/>
  <unicode hex="0069"/>
  <outline>
    <contour>
      <point x="112" y="410" type="curve"/>
      <point x="112" y="410"/>
      <point x="116" y="184"/>
      <point x="20" y="-9" type="curve"/>
      <point x="206" y="41" type="line"/>
      <point x="206" y="41"/>
      <point x="252" y="160"/>
      <point x="248" y="309" type="curve"/>
      <point x="248" y="309"/>
      <point x="246" y="455"/>
      <point x="251" y="502" type="curve"/>
      <point x="251" y="502"/>
      <point x="196" y="435"/>
    </contour>
    <contour>
      <point x="105" y="678" type="curve"/>
      <point x="105" y="678"/>
      <point x="143" y="574"/>
      <point x="111" y="502" type="curve"/>
      <point x="220" y="575" type="line"/>
      <point x="220" y="575"/>
      <point x="245" y="590"/>
      <point x="249" y="639" type="curve"/>
      <point x="249" y="639"/>
      <point x="253" y="699"/>
      <point x="241" y="740" type="curve"/>
      <point x="241" y="740"/>
      <point x="195" y="677"/>
    </contour>
  </outline>
</glyph>
<glyph name="j" format="2">
  <advance width="472"/>
  <unicode hex="006A"/>
  <outline>
    <contour>
      <point x="272" y="675" type="curve"/>
      <point x="272" y="675"/>
      <point x="310" y="571"/>
      <point x="278" y="499" type="curve"/>
      <point x="387" y="572" type="line"/>
      <point x="387" y="572"/>
      <point x="412" y="587"/>
      <point x="416" y="636" type="curve"/>
      <point x="416" y="636"/>
      <point x="420" y="696"/>
      <point x="408" y="737" type="curve"/>
      <point x="408" y="737"/>
      <point x="362" y="674"/>
    </contour>
    <contour>
      <point x="271" y="409" type="curve"/>
      <point x="271" y="409"/>
      <point x="248" y="137"/>
      <point x="245" y="108" type="curve" smooth="yes"/>
      <point x="242" y="79"/>
      <point x="229" y="-53"/>
      <point x="195" y="-137" type="curve" smooth="yes"/>
      <point x="161" y="-221"/>
      <point x="28" y="-106"/>
      <point x="14" y="-13" type="curve"/>
      <point x="-120" y="-101" type="line"/>
      <point x="-120" y="-101"/>
      <point x="-100" y="-181"/>
      <point x="-36" y="-217" type="curve"/>
      <point x="-36" y="-217"/>
      <point x="87" y="-281"/>
      <point x="228" y="-188" type="curve"/>
      <point x="228" y="-188"/>
      <point x="374" y="-96"/>
      <point x="410" y="45" type="curve"/>
      <point x="410" y="45"/>
      <point x="405" y="113"/>
      <point x="406" y="219" type="curve" smooth="yes"/>
      <point x="407" y="338"/>
      <point x="437" y="491"/>
      <point x="442" y="505" type="curve"/>
      <point x="442" y="505"/>
      <point x="364" y="421"/>
    </contour>
  </outline>
</glyph>
<glyph name="k" format="2">
  <advance width="572"/>
  <unicode hex="006B"/>
  <outline>
    <contour>
      <point x="20" y="1" type="curve"/>
      <point x="226" y="1" type="line"/>
      <point x="226" y="1"/>
      <point x="273" y="218"/>
      <point x="252" y="416" type="curve"/>
      <point x="252" y="416"/>
      <point x="226" y="685"/>
      <point x="266" y="762" type="curve"/>
      <point x="266" y="762"/>
      <point x="218" y="671"/>
      <point x="137" y="660" type="curve"/>
      <point x="137" y="660"/>
      <point x="120" y="496"/>
      <point x="112" y="323" type="curve"/>
      <point x="112" y="323"/>
      <point x="92" y="106"/>
    </contour>
    <contour>
      <point x="525" y="525" type="line"/>
      <point x="389" y="477"/>
      <point x="309" y="412"/>
      <point x="309" y="412" type="curve"/>
      <point x="234" y="236" type="line"/>
      <point x="362" y="361"/>
      <point x="483" y="371"/>
      <point x="483" y="371" type="curve"/>
    </contour>
    <contour>
      <point x="532" y="-4" type="line"/>
      <point x="498" y="109"/>
      <point x="421" y="186"/>
      <point x="421" y="186" type="curve"/>
      <point x="341" y="277"/>
      <point x="242" y="274"/>
      <point x="242" y="274" type="curve"/>
      <point x="326" y="207"/>
      <point x="366" y="43"/>
      <point x="366" y="43" type="curve"/>
    </contour>
  </outline>
</glyph>
<glyph name="l" format="2">
  <advance width="264"/>
  <unicode hex="006C"/>
  <outline>
    <contour>
      <point x="0" y="-2" type="curve"/>
      <point x="199" y="49" type="line"/>
      <point x="199" y="49"/>
      <point x="250" y="200"/>
      <point x="234" y="417" type="curve"/>
      <point x="234" y="417"/>
      <point x="223" y="666"/>
      <point x="280" y="743" type="curve"/>
      <point x="280" y="743"/>
      <point x="198" y="658"/>
      <point x="117" y="647" type="curve"/>
      <point x="117" y="647"/>
      <point x="89" y="446"/>
      <point x="88" y="335" type="curve"/>
      <point x="88" y="335"/>
      <point x="82" y="243"/>
      <point x="69" y="199" type="curve"/>
      <point x="69" y="199"/>
      <point x="50" y="103"/>
    </contour>
  </outline>
</glyph>
<glyph name="m" format="2">
  <advance width="890"/>
  <unicode hex="006D"/>
  <outline>
    <contour>
      <point x="100" y="417" type="curve"/>
      <point x="100" y="417"/>
      <point x="121" y="214"/>
      <point x="10" y="-1" type="curve"/>
      <point x="184" y="52" type="line"/>
      <point x="184" y="52"/>
      <point x="232" y="170"/>
      <point x="230" y="331" type="curve" smooth="yes"/>
      <point x="230" y="511" type="line"/>
      <point x="230" y="511"/>
      <point x="189" y="445"/>
    </contour>
    <contour>
      <point x="281" y="496" type="curve"/>
      <point x="224" y="341" type="line"/>
      <point x="224" y="341"/>
      <point x="369" y="484"/>
      <point x="407" y="385" type="curve"/>
      <point x="407" y="385"/>
      <point x="468" y="250"/>
      <point x="350" y="8" type="curve"/>
      <point x="528" y="7" type="line"/>
      <point x="528" y="7"/>
      <point x="646" y="524"/>
      <point x="376" y="517" type="curve"/>
      <point x="376" y="517"/>
      <point x="324" y="518"/>
    </contour>
    <contour>
      <point x="562" y="489" type="curve"/>
      <point x="505" y="332" type="line"/>
      <point x="505" y="332"/>
      <point x="663" y="484"/>
      <point x="701" y="385" type="curve"/>
      <point x="701" y="385"/>
      <point x="762" y="250"/>
      <point x="644" y="8" type="curve"/>
      <point x="814" y="7" type="line"/>
      <point x="814" y="7"/>
      <point x="940" y="522"/>
      <point x="670" y="515" type="curve"/>
      <point x="670" y="515"/>
      <point x="605" y="511"/>
    </contour>
  </outline>
</glyph>
<glyph name="n" format="2">
  <advance width="615"/>
  <unicode hex="006E"/>
  <outline>
    <contour>
      <point x="99" y="417" type="curve"/>
      <point x="99" y="417"/>
      <point x="120" y="214"/>
      <point x="9" y="-1" type="curve"/>
      <point x="183" y="52" type="line"/>
      <point x="183" y="52"/>
      <point x="231" y="170"/>
      <point x="229" y="331" type="curve" smooth="yes"/>
      <point x="229" y="511" type="line"/>
      <point x="229" y="511"/>
      <point x="188" y="445"/>
    </contour>
    <contour>
      <point x="287" y="489" type="curve"/>
      <point x="230" y="332" type="line"/>
      <point x="230" y="332"/>
      <point x="388" y="484"/>
      <point x="426" y="385" type="curve"/>
      <point x="426" y="385"/>
      <point x="487" y="250"/>
      <point x="369" y="8" type="curve"/>
      <point x="539" y="7" type="line"/>
      <point x="539" y="7"/>
      <point x="665" y="522"/>
      <point x="395" y="515" type="curve"/>
      <point x="395" y="515"/>
      <point x="330" y="511"/>
    </contour>
  </outline>
</glyph>
<glyph name="o" format="2">
  <advance width="607"/>
  <unicode hex="006F"/>
  <outline>
    <contour>
      <point x="20" y="226" type="line"/>
      <point x="54" y="248" type="line" smooth="yes"/>
      <point x="73" y="260"/>
      <point x="82" y="309"/>
      <point x="82" y="309" type="curve"/>
      <point x="132" y="528"/>
      <point x="323" y="517"/>
      <point x="323" y="517" type="curve"/>
      <point x="572" y="512"/>
      <point x="577" y="269"/>
      <point x="577" y="269" type="curve"/>
      <point x="574" y="-15"/>
      <point x="304" y="-8"/>
      <point x="304" y="-8" type="curve"/>
      <point x="186" y="-4"/>
      <point x="121" y="49"/>
      <point x="121" y="49" type="curve"/>
      <point x="160" y="116"/>
      <point x="164" y="199"/>
      <point x="164" y="199" type="curve"/>
      <point x="183" y="168"/>
      <point x="233" y="136"/>
      <point x="233" y="136" type="curve"/>
      <point x="328" y="84"/>
      <point x="399" y="133"/>
      <point x="399" y="133" type="curve"/>
      <point x="521" y="218"/>
      <point x="417" y="360"/>
      <point x="417" y="360" type="curve"/>
      <point x="360" y="437"/>
      <point x="275" y="413"/>
      <point x="241" y="381" type="curve" smooth="yes"/>
      <point x="206" y="348"/>
      <point x="196" y="320"/>
      <point x="179" y="242" type="curve" smooth="yes"/>
      <point x="161" y="162"/>
      <point x="80" y="108"/>
      <point x="80" y="108" type="curve"/>
    </contour>
  </outline>
</glyph>
<glyph name="p" format="2">
  <advance width="571"/>
  <unicode hex="0070"/>
  <outline>
    <contour>
      <point x="77" y="448" type="curve"/>
      <point x="77" y="448"/>
      <point x="152" y="465"/>
      <point x="206" y="536" type="curve"/>
      <point x="206" y="536"/>
      <point x="95" y="205"/>
      <point x="249" y="-195" type="curve"/>
      <point x="80" y="-168" type="line"/>
      <point x="80" y="-168"/>
      <point x="35" y="241"/>
    </contour>
    <contour>
      <point x="176" y="426" type="curve"/>
      <point x="317" y="574"/>
      <point x="493" y="446"/>
      <point x="493" y="446" type="curve"/>
      <point x="463" y="384"/>
      <point x="451" y="300"/>
      <point x="451" y="300" type="curve"/>
      <point x="305" y="454"/>
      <point x="208" y="351"/>
      <point x="208" y="351" type="curve"/>
      <point x="193" y="379"/>
      <point x="176" y="426"/>
    </contour>
    <contour>
      <point x="209" y="129" type="curve"/>
      <point x="397" y="15"/>
      <point x="431" y="231"/>
      <point x="431" y="231" type="curve"/>
      <point x="446" y="343"/>
      <point x="533" y="391"/>
      <point x="533" y="391" type="curve"/>
      <point x="596" y="272" type="line"/>
      <point x="540" y="255"/>
      <point x="536" y="205"/>
      <point x="536" y="205" type="curve"/>
      <point x="511" y="92"/>
      <point x="456" y="51"/>
      <point x="456" y="51" type="curve"/>
      <point x="302" y="-83"/>
      <point x="175" y="54"/>
      <point x="175" y="54" type="curve"/>
      <point x="185" y="87"/>
      <point x="209" y="129"/>
    </contour>
  </outline>
</glyph>
<glyph name="q" format="2">
  <advance width="621"/>
  <unicode hex="0071"/>
  <outline>
    <contour>
      <point x="431" y="64" type="curve"/>
      <point x="290" y="-84"/>
      <point x="113" y="44"/>
      <point x="113" y="44" type="curve"/>
      <point x="143" y="106"/>
      <point x="155" y="190"/>
      <point x="155" y="190" type="curve"/>
      <point x="301" y="36"/>
      <point x="398" y="139"/>
      <point x="398" y="139" type="curve"/>
      <point x="413" y="111"/>
      <point x="431" y="64"/>
    </contour>
    <contour>
      <point x="398" y="358" type="curve"/>
      <point x="210" y="472"/>
      <point x="175" y="259"/>
      <point x="175" y="259" type="curve"/>
      <point x="160" y="147"/>
      <point x="73" y="99"/>
      <point x="73" y="99" type="curve"/>
      <point x="10" y="218" type="line"/>
      <point x="68" y="239"/>
      <point x="70" y="285"/>
      <point x="70" y="285" type="curve"/>
      <point x="97" y="394"/>
      <point x="150" y="439"/>
      <point x="150" y="439" type="curve"/>
      <point x="308" y="570"/>
      <point x="438" y="436"/>
      <point x="438" y="436" type="curve"/>
      <point x="422" y="397"/>
      <point x="398" y="358"/>
    </contour>
    <contour>
      <point x="431" y="466" type="curve"/>
      <point x="431" y="466"/>
      <point x="446" y="433"/>
      <point x="453" y="268" type="curve" smooth="yes"/>
      <point x="460" y="103"/>
      <point x="400" y="-84"/>
      <point x="348" y="-204" type="curve"/>
      <point x="512" y="-159" type="line"/>
      <point x="512" y="-159"/>
      <point x="580" y="31"/>
      <point x="560" y="282" type="curve"/>
      <point x="560" y="282"/>
      <point x="551" y="418"/>
      <point x="549" y="539" type="curve"/>
      <point x="549" y="539"/>
      <point x="496" y="490"/>
    </contour>
  </outline>
</glyph>
<glyph name="r" format="2">
  <advance width="457"/>
  <unicode hex="0072"/>
  <outline>
    <contour>
      <point x="10" y="-4" type="line"/>
      <point x="10" y="-4"/>
      <point x="118" y="226"/>
      <point x="108" y="424" type="curve"/>
      <point x="108" y="424"/>
      <point x="185" y="452"/>
      <point x="245" y="518" type="curve"/>
      <point x="245" y="518"/>
      <point x="251" y="298"/>
      <point x="238" y="210" type="curve"/>
      <point x="238" y="210"/>
      <point x="223" y="92"/>
      <point x="202" y="56" type="curve"/>
    </contour>
    <contour>
      <point x="235" y="347" type="curve"/>
      <point x="235" y="347"/>
      <point x="293" y="514"/>
      <point x="507" y="509" type="curve"/>
      <point x="436" y="377" type="line"/>
      <point x="436" y="377"/>
      <point x="304" y="396"/>
      <point x="241" y="340" type="curve" smooth="yes"/>
      <point x="192" y="296"/>
      <point x="235" y="347"/>
    </contour>
  </outline>
</glyph>
<glyph name="s" format="2">
  <advance width="455"/>
  <unicode hex="0073"/>
  <outline>
    <contour>
      <point x="435" y="450" type="curve"/>
      <point x="435" y="450"/>
      <point x="392" y="404"/>
      <point x="392" y="303" type="curve"/>
      <point x="392" y="303"/>
      <point x="285" y="456"/>
      <point x="86" y="362" type="curve"/>
      <point x="86" y="362"/>
      <point x="97" y="460"/>
      <point x="199" y="493" type="curve"/>
      <point x="199" y="493"/>
      <point x="319" y="535"/>
    </contour>
    <contour>
      <point x="20" y="44" type="curve"/>
      <point x="20" y="44"/>
      <point x="63" y="90"/>
      <point x="63" y="191" type="curve"/>
      <point x="63" y="191"/>
      <point x="175" y="59"/>
      <point x="303" y="128" type="curve"/>
      <point x="303" y="128"/>
      <point x="363" y="132"/>
      <point x="404" y="108" type="curve"/>
      <point x="404" y="108"/>
      <point x="290" y="-110"/>
    </contour>
    <contour>
      <point x="303" y="128" type="curve"/>
      <point x="303" y="128"/>
      <point x="330" y="153"/>
      <point x="407" y="160" type="curve"/>
      <point x="407" y="160"/>
      <point x="375" y="335"/>
      <point x="86" y="361" type="curve"/>
      <point x="86" y="361"/>
      <point x="82" y="293"/>
      <point x="111" y="253" type="curve"/>
      <point x="111" y="253"/>
      <point x="243" y="255"/>
    </contour>
  </outline>
</glyph>
<glyph name="t" format="2">
  <advance width="475"/>
  <unicode hex="0074"/>
  <outline>
    <contour>
      <point x="30" y="471" type="curve"/>
      <point x="30" y="471"/>
      <point x="81" y="423"/>
      <point x="98" y="343" type="curve"/>
      <point x="98" y="343"/>
      <point x="143" y="374"/>
      <point x="180" y="373" type="curve"/>
      <point x="180" y="373"/>
      <point x="188" y="170"/>
      <point x="92" y="-12" type="curve"/>
      <point x="271" y="39" type="line"/>
      <point x="271" y="39"/>
      <point x="321" y="201"/>
      <point x="310" y="374" type="curve"/>
      <point x="310" y="374"/>
      <point x="307" y="682"/>
      <point x="351" y="738" type="curve"/>
      <point x="351" y="738"/>
      <point x="286" y="663"/>
      <point x="203" y="650" type="curve"/>
      <point x="203" y="650"/>
      <point x="188" y="509"/>
      <point x="190" y="482" type="curve"/>
      <point x="190" y="482"/>
      <point x="112" y="513"/>
    </contour>
    <contour>
      <point x="310" y="447" type="curve"/>
      <point x="310" y="447"/>
      <point x="333" y="383"/>
      <point x="345" y="372" type="curve" smooth="yes"/>
      <point x="357" y="361"/>
      <point x="363" y="344"/>
      <point x="419" y="346" type="curve" smooth="yes"/>
      <point x="476" y="348"/>
      <point x="510" y="374"/>
      <point x="510" y="374" type="curve"/>
      <point x="510" y="374"/>
      <point x="450" y="415"/>
      <point x="426" y="498" type="curve"/>
      <point x="426" y="498"/>
      <point x="384" y="458"/>
      <point x="316" y="457" type="curve" smooth="yes"/>
      <point x="247" y="456"/>
      <point x="310" y="447"/>
    </contour>
  </outline>
</glyph>
<glyph name="u" format="2">
  <advance width="575"/>
  <unicode hex="0075"/>
  <outline>
    <contour>
      <point x="144" y="479" type="line"/>
      <point x="99" y="425"/>
      <point x="66" y="335"/>
      <point x="66" y="335" type="curve"/>
      <point x="-15" y="128"/>
      <point x="82" y="32"/>
      <point x="82" y="32" type="curve"/>
      <point x="167" y="-49"/>
      <point x="316" y="5"/>
      <point x="316" y="5" type="curve"/>
      <point x="399" y="125" type="line"/>
      <point x="275" y="91" type="line"/>
      <point x="164" y="69"/>
      <point x="162" y="171"/>
      <point x="162" y="171" type="curve"/>
      <point x="140" y="323"/>
      <point x="304" y="479"/>
      <point x="304" y="479" type="curve"/>
    </contour>
    <contour>
      <point x="411" y="451" type="curve"/>
      <point x="411" y="451"/>
      <point x="376" y="125"/>
      <point x="399" y="-26" type="curve"/>
      <point x="399" y="-26"/>
      <point x="470" y="15"/>
      <point x="545" y="47" type="curve"/>
      <point x="545" y="47"/>
      <point x="492" y="298"/>
      <point x="540" y="521" type="curve"/>
      <point x="540" y="521"/>
      <point x="481" y="469"/>
    </contour>
  </outline>
</glyph>
<glyph name="v" format="2">
  <advance width="540"/>
  <unicode hex="0076"/>
  <outline>
    <contour>
      <point x="148" y="534" type="curve"/>
      <point x="148" y="534"/>
      <point x="122" y="442"/>
      <point x="10" y="418" type="curve"/>
      <point x="10" y="418"/>
      <point x="54" y="291"/>
      <point x="136" y="150" type="curve"/>
      <point x="136" y="150"/>
      <point x="210" y="146"/>
      <point x="256" y="140" type="curve"/>
      <point x="256" y="140"/>
      <point x="171" y="264"/>
    </contour>
    <contour>
      <point x="153" y="106" type="curve"/>
      <point x="153" y="106"/>
      <point x="173" y="56"/>
      <point x="216" y="-1" type="curve"/>
      <point x="216" y="-1"/>
      <point x="285" y="44"/>
      <point x="382" y="64" type="curve"/>
      <point x="382" y="64"/>
      <point x="416" y="340"/>
      <point x="535" y="500" type="curve"/>
      <point x="346" y="462" type="line"/>
      <point x="346" y="462"/>
      <point x="313" y="347"/>
      <point x="293" y="150" type="curve"/>
      <point x="293" y="150"/>
      <point x="199" y="124"/>
    </contour>
  </outline>
</glyph>
<glyph name="w" format="2">
  <advance width="836"/>
  <unicode hex="0077"/>
  <outline>
    <contour>
      <point x="148" y="534" type="curve"/>
      <point x="148" y="534"/>
      <point x="122" y="442"/>
      <point x="10" y="418" type="curve"/>
      <point x="10" y="418"/>
      <point x="49" y="292"/>
      <point x="131" y="151" type="curve"/>
      <point x="131" y="151"/>
      <point x="210" y="146"/>
      <point x="256" y="140" type="curve"/>
      <point x="256" y="140"/>
      <point x="171" y="264"/>
    </contour>
    <contour>
      <point x="153" y="106" type="curve"/>
      <point x="153" y="106"/>
      <point x="184" y="43"/>
      <point x="216" y="-1" type="curve"/>
      <point x="216" y="-1"/>
      <point x="248" y="38"/>
      <point x="355" y="64" type="curve"/>
      <point x="355" y="64"/>
      <point x="377" y="260"/>
      <point x="455" y="426" type="curve"/>
      <point x="331" y="412" type="line"/>
      <point x="331" y="412"/>
      <point x="296" y="297"/>
      <point x="282" y="150" type="curve"/>
      <point x="282" y="150"/>
      <point x="199" y="124"/>
    </contour>
    <contour>
      <point x="444" y="528" type="curve"/>
      <point x="444" y="528"/>
      <point x="419" y="459"/>
      <point x="331" y="412" type="curve"/>
      <point x="331" y="412"/>
      <point x="360" y="286"/>
      <point x="442" y="145" type="curve"/>
      <point x="442" y="145"/>
      <point x="498" y="144"/>
      <point x="562" y="137" type="curve"/>
      <point x="562" y="137"/>
      <point x="467" y="258"/>
    </contour>
    <contour>
      <point x="459" y="104" type="curve"/>
      <point x="459" y="104"/>
      <point x="492" y="44"/>
      <point x="525" y="0" type="curve"/>
      <point x="525" y="0"/>
      <point x="581" y="38"/>
      <point x="678" y="58" type="curve"/>
      <point x="678" y="58"/>
      <point x="712" y="334"/>
      <point x="831" y="494" type="curve"/>
      <point x="642" y="456" type="line"/>
      <point x="642" y="456"/>
      <point x="609" y="341"/>
      <point x="589" y="144" type="curve"/>
      <point x="589" y="144"/>
      <point x="505" y="122"/>
    </contour>
  </outline>
</glyph>
<glyph name="x" format="2">
  <advance width="552"/>
  <unicode hex="0078"/>
  <outline>
    <contour>
      <point x="20" y="512" type="curve"/>
      <point x="190" y="469" type="line"/>
      <point x="190" y="469"/>
      <point x="217" y="332"/>
      <point x="282" y="247" type="curve"/>
      <point x="282" y="247"/>
      <point x="181" y="238"/>
      <point x="110" y="334" type="curve"/>
      <point x="110" y="334"/>
      <point x="45" y="422"/>
    </contour>
    <contour>
      <point x="525" y="515" type="curve"/>
      <point x="482" y="345" type="line"/>
      <point x="482" y="345"/>
      <point x="367" y="312"/>
      <point x="282" y="247" type="curve"/>
      <point x="282" y="247"/>
      <point x="272" y="334"/>
      <point x="368" y="422" type="curve"/>
      <point x="368" y="422"/>
      <point x="435" y="490"/>
    </contour>
    <contour>
      <point x="28" y="-3" type="line"/>
      <point x="53" y="87"/>
      <point x="117" y="151"/>
      <point x="117" y="151" type="curve"/>
      <point x="209" y="256"/>
      <point x="282" y="247"/>
      <point x="282" y="247" type="curve"/>
      <point x="202" y="121"/>
      <point x="219" y="-3"/>
      <point x="219" y="-3" type="curve"/>
    </contour>
    <contour>
      <point x="532" y="-7" type="line"/>
      <point x="442" y="18"/>
      <point x="378" y="82"/>
      <point x="378" y="82" type="curve"/>
      <point x="273" y="174"/>
      <point x="282" y="247"/>
      <point x="282" y="247" type="curve"/>
      <point x="408" y="167"/>
      <point x="532" y="184"/>
      <point x="532" y="184" type="curve"/>
    </contour>
  </outline>
</glyph>
<glyph name="y" format="2">
  <advance width="656"/>
  <unicode hex="0079"/>
  <outline>
    <contour>
      <point x="475" y="494" type="curve"/>
      <point x="462" y="437"/>
      <point x="378" y="102"/>
      <point x="295" y="-118" type="curve" smooth="yes"/>
      <point x="264" y="-200"/>
      <point x="128" y="-87"/>
      <point x="114" y="6" type="curve"/>
      <point x="-20" y="-82" type="line"/>
      <point x="-20" y="-82"/>
      <point x="0" y="-162"/>
      <point x="64" y="-198" type="curve"/>
      <point x="64" y="-198"/>
      <point x="187" y="-262"/>
      <point x="328" y="-169" type="curve"/>
      <point x="328" y="-169"/>
      <point x="464" y="-71"/>
      <point x="500" y="70" type="curve"/>
      <point x="511" y="90"/>
      <point x="627" y="464"/>
      <point x="636" y="490" type="curve"/>
      <point x="636" y="490"/>
      <point x="568" y="506"/>
    </contour>
    <contour>
      <point x="259" y="532" type="curve"/>
      <point x="259" y="532"/>
      <point x="227" y="441"/>
      <point x="130" y="413" type="curve"/>
      <point x="130" y="413"/>
      <point x="154" y="212"/>
      <point x="310" y="61" type="curve"/>
      <point x="375" y="119" type="line"/>
      <point x="375" y="119"/>
      <point x="256" y="364"/>
    </contour>
  </outline>
</glyph>
<glyph name="z" format="2">
  <advance width="518"/>
  <unicode hex="007A"/>
  <outline>
    <contour>
      <point x="41" y="93" type="curve"/>
      <point x="41" y="93"/>
      <point x="24" y="38"/>
      <point x="21" y="-1" type="curve"/>
      <point x="449" y="-3" type="line"/>
      <point x="449" y="-3"/>
      <point x="455" y="80"/>
      <point x="498" y="133" type="curve"/>
      <point x="498" y="133"/>
      <point x="136" y="89"/>
    </contour>
    <contour>
      <point x="477" y="406" type="curve"/>
      <point x="477" y="406"/>
      <point x="494" y="461"/>
      <point x="497" y="500" type="curve"/>
      <point x="69" y="502" type="line"/>
      <point x="69" y="502"/>
      <point x="63" y="419"/>
      <point x="20" y="366" type="curve"/>
      <point x="20" y="366"/>
      <point x="382" y="410"/>
    </contour>
    <contour>
      <point x="156" y="96" type="line"/>
      <point x="156" y="96"/>
      <point x="441" y="224"/>
      <point x="486" y="440" type="curve"/>
      <point x="486" y="440"/>
      <point x="435" y="412"/>
      <point x="349" y="400" type="curve"/>
      <point x="349" y="400"/>
      <point x="232" y="235"/>
      <point x="60" y="149" type="curve"/>
    </contour>
  </outline>
</glyph>
<glyph name="endash" format="2">
  <advance width="579"/>
  <unicode hex="2013"/>
  <outline>
    <contour>
      <point x="20" y="186" type="curve"/>
      <point x="20" y="186"/>
      <point x="84" y="216"/>
      <point x="115" y="303" type="curve"/>
      <point x="115" y="303"/>
      <point x="229" y="307"/>
      <point x="311" y="298" type="curve"/>
      <point x="311" y="298"/>
      <point x="495" y="287"/>
      <point x="559" y="300" type="curve"/>
      <point x="519" y="164" type="line"/>
      <point x="519" y="164"/>
      <point x="401" y="163"/>
      <point x="295" y="185" type="curve"/>
      <point x="295" y="185"/>
      <point x="179" y="208"/>
      <point x="78" y="198" type="curve"/>
      <point x="78" y="198"/>
      <point x="35" y="192"/>
    </contour>
  </outline>
</glyph>
<glyph name="emdash" format="2">
  <advance width="790"/>
  <unicode hex="2014"/>
  <outline>
    <contour>
      <point x="20" y="186" type="curve"/>
      <point x="20" y="186"/>
      <point x="84" y="219"/>
      <point x="115" y="306" type="curve"/>
      <point x="115" y="306"/>
      <point x="281" y="305"/>
      <point x="363" y="296" type="curve"/>
      <point x="363" y="296"/>
      <point x="558" y="286"/>
      <point x="770" y="303" type="curve"/>
      <point x="733" y="164" type="line"/>
      <point x="733" y="164"/>
      <point x="427" y="163"/>
      <point x="321" y="185" type="curve"/>
      <point x="321" y="185"/>
      <point x="205" y="208"/>
      <point x="104" y="198" type="curve"/>
      <point x="104" y="198"/>
      <point x="35" y="192"/>
    </contour>
  </outline>
</glyph>
<glyph name="quoteleft" format="2">
  <advance width="221"/>
  <unicode hex="2018"/>
  <outline>
    <contour>
      <point x="170" y="405" type="curve"/>
      <point x="170" y="405"/>
      <point x="168" y="521"/>
      <point x="201" y="552" type="curve"/>
      <point x="75" y="525" type="line"/>
      <point x="75" y="525"/>
      <point x="98" y="561"/>
      <point x="176" y="611" type="curve"/>
      <point x="176" y="611"/>
      <point x="163" y="689"/>
      <point x="164" y="748" type="curve"/>
      <point x="164" y="748"/>
      <point x="-5" y="672"/>
      <point x="23" y="385" type="curve"/>
      <point x="23" y="385"/>
      <point x="90" y="422"/>
    </contour>
  </outline>
</glyph>
<glyph name="quoteright" format="2">
  <advance width="221"/>
  <unicode hex="2019"/>
  <outline>
    <contour>
      <point x="51" y="727" type="curve"/>
      <point x="51" y="727"/>
      <point x="53" y="611"/>
      <point x="20" y="580" type="curve"/>
      <point x="146" y="607" type="line"/>
      <point x="146" y="607"/>
      <point x="123" y="571"/>
      <point x="45" y="521" type="curve"/>
      <point x="45" y="521"/>
      <point x="58" y="443"/>
      <point x="57" y="384" type="curve"/>
      <point x="57" y="384"/>
      <point x="226" y="460"/>
      <point x="198" y="747" type="curve"/>
      <point x="198" y="747"/>
      <point x="131" y="710"/>
    </contour>
  </outline>
</glyph>
<glyph name="quotedblleft" format="2">
  <advance width="433"/>
  <unicode hex="201C"/>
  <outline>
    <contour>
      <point x="180" y="405" type="curve"/>
      <point x="180" y="405"/>
      <point x="178" y="521"/>
      <point x="211" y="552" type="curve"/>
      <point x="85" y="525" type="line"/>
      <point x="85" y="525"/>
      <point x="108" y="561"/>
      <point x="186" y="611" type="curve"/>
      <point x="186" y="611"/>
      <point x="173" y="689"/>
      <point x="174" y="748" type="curve"/>
      <point x="174" y="748"/>
      <point x="5" y="672"/>
      <point x="33" y="385" type="curve"/>
      <point x="33" y="385"/>
      <point x="100" y="422"/>
    </contour>
    <contour>
      <point x="372" y="405" type="curve"/>
      <point x="372" y="405"/>
      <point x="370" y="521"/>
      <point x="403" y="552" type="curve"/>
      <point x="277" y="525" type="line"/>
      <point x="277" y="525"/>
      <point x="300" y="561"/>
      <point x="378" y="611" type="curve"/>
      <point x="378" y="611"/>
      <point x="365" y="689"/>
      <point x="366" y="748" type="curve"/>
      <point x="366" y="748"/>
      <point x="197" y="672"/>
      <point x="225" y="385" type="curve"/>
      <point x="225" y="385"/>
      <point x="292" y="422"/>
    </contour>
  </outline>
</glyph>
<glyph name="quotedblright" format="2">
  <advance width="443"/>
  <unicode hex="201D"/>
  <outline>
    <contour>
      <point x="263" y="727" type="curve"/>
      <point x="263" y="727"/>
      <point x="265" y="611"/>
      <point x="232" y="580" type="curve"/>
      <point x="358" y="607" type="line"/>
      <point x="358" y="607"/>
      <point x="335" y="571"/>
      <point x="257" y="521" type="curve"/>
      <point x="257" y="521"/>
      <point x="270" y="443"/>
      <point x="269" y="384" type="curve"/>
      <point x="269" y="384"/>
      <point x="438" y="460"/>
      <point x="410" y="747" type="curve"/>
      <point x="410" y="747"/>
      <point x="343" y="710"/>
    </contour>
    <contour>
      <point x="71" y="727" type="curve"/>
      <point x="71" y="727"/>
      <point x="73" y="611"/>
      <point x="40" y="580" type="curve"/>
      <point x="166" y="607" type="line"/>
      <point x="166" y="607"/>
      <point x="143" y="571"/>
      <point x="65" y="521" type="curve"/>
      <point x="65" y="521"/>
      <point x="78" y="443"/>
      <point x="77" y="384" type="curve"/>
      <point x="77" y="384"/>
      <point x="246" y="460"/>
      <point x="218" y="747" type="curve"/>
      <point x="218" y="747"/>
      <point x="151" y="710"/>
    </contour>
  </outline>
</glyph>
<glyph name="asteriskcentreopen" format="2">
  <advance width="700"/>
  <unicode hex="2732"/>
  <outline>
    <contour>
      <point x="301" y="169" type="curve"/>
      <point x="432" y="168" type="line"/>
      <point x="432" y="168"/>
      <point x="368" y="119"/>
      <point x="346" y="-1" type="curve"/>
      <point x="248" y="0" type="line"/>
      <point x="248" y="0"/>
      <point x="256" y="101"/>
    </contour>
    <contour>
      <point x="432" y="168" type="curve"/>
      <point x="490" y="280" type="line"/>
      <point x="490" y="280"/>
      <point x="509" y="196"/>
      <point x="591" y="134" type="curve"/>
      <point x="545" y="52" type="line"/>
      <point x="545" y="52"/>
      <point x="499" y="69"/>
    </contour>
    <contour>
      <point x="490" y="280" type="curve"/>
      <point x="429" y="389" type="line"/>
      <point x="429" y="389"/>
      <point x="536" y="370"/>
      <point x="627" y="397" type="curve"/>
      <point x="659" y="307" type="line"/>
      <point x="659" y="307"/>
      <point x="595" y="284"/>
    </contour>
    <contour>
      <point x="429" y="389" type="curve"/>
      <point x="296" y="389" type="line"/>
      <point x="296" y="389"/>
      <point x="358" y="457"/>
      <point x="375" y="574" type="curve"/>
      <point x="474" y="569" type="line"/>
      <point x="474" y="569"/>
      <point x="470" y="454"/>
    </contour>
    <contour>
      <point x="239" y="277" type="curve"/>
      <point x="301" y="169" type="line"/>
      <point x="301" y="169"/>
      <point x="204" y="204"/>
      <point x="98" y="175" type="curve"/>
      <point x="55" y="259" type="line"/>
      <point x="55" y="259"/>
      <point x="142" y="299"/>
    </contour>
    <contour>
      <point x="296" y="389" type="curve"/>
      <point x="239" y="277" type="line"/>
      <point x="239" y="277"/>
      <point x="199" y="377"/>
      <point x="105" y="408" type="curve"/>
      <point x="147" y="486" type="line"/>
      <point x="147" y="486"/>
      <point x="244" y="459"/>
    </contour>
  </outline>
</glyph>
